{
	"patcher" : 	{
		"fileversion" : 1,
		"appversion" : 		{
			"major" : 5,
			"minor" : 1,
			"revision" : 9
		}
,
		"rect" : [ 1420.0, 172.0, 1854.0, 837.0 ],
		"bglocked" : 0,
		"defrect" : [ 1420.0, 172.0, 1854.0, 837.0 ],
		"openrect" : [ 0.0, 0.0, 0.0, 0.0 ],
		"openinpresentation" : 0,
		"default_fontsize" : 18.0,
		"default_fontface" : 0,
		"default_fontname" : "Arial",
		"gridonopen" : 0,
		"gridsize" : [ 20.0, 20.0 ],
		"gridsnaponopen" : 0,
		"toolbarvisible" : 1,
		"boxanimatetime" : 200,
		"imprint" : 0,
		"enablehscroll" : 1,
		"enablevscroll" : 1,
		"devicewidth" : 0.0,
		"boxes" : [ 			{
				"box" : 				{
					"maxclass" : "flonum",
					"fontsize" : 18.0,
					"numinlets" : 1,
					"numoutlets" : 2,
					"outlettype" : [ "float", "bang" ],
					"fontname" : "Arial",
					"id" : "obj-49",
					"patching_rect" : [ 620.0, 320.0, 50.0, 27.0 ]
				}

			}
, 			{
				"box" : 				{
					"maxclass" : "newobj",
					"text" : "scale 0. 1. 0. 4.",
					"fontsize" : 18.0,
					"numinlets" : 6,
					"numoutlets" : 1,
					"outlettype" : [ "" ],
					"fontname" : "Arial",
					"id" : "obj-54",
					"patching_rect" : [ 680.0, 100.0, 132.0, 27.0 ]
				}

			}
, 			{
				"box" : 				{
					"maxclass" : "flonum",
					"fontsize" : 18.0,
					"numinlets" : 1,
					"numoutlets" : 2,
					"outlettype" : [ "float", "bang" ],
					"fontname" : "Arial",
					"id" : "obj-55",
					"patching_rect" : [ 720.0, 140.0, 50.0, 27.0 ]
				}

			}
, 			{
				"box" : 				{
					"maxclass" : "flonum",
					"fontsize" : 18.0,
					"numinlets" : 1,
					"numoutlets" : 2,
					"outlettype" : [ "float", "bang" ],
					"fontname" : "Arial",
					"id" : "obj-56",
					"patching_rect" : [ 700.0, 60.0, 50.0, 27.0 ]
				}

			}
, 			{
				"box" : 				{
					"maxclass" : "flonum",
					"fontsize" : 18.0,
					"numinlets" : 1,
					"numoutlets" : 2,
					"outlettype" : [ "float", "bang" ],
					"fontname" : "Arial",
					"id" : "obj-57",
					"patching_rect" : [ 700.0, 200.0, 50.0, 27.0 ]
				}

			}
, 			{
				"box" : 				{
					"maxclass" : "gswitch",
					"numinlets" : 3,
					"numoutlets" : 1,
					"outlettype" : [ "" ],
					"id" : "obj-58",
					"patching_rect" : [ 680.0, 160.0, 41.0, 32.0 ]
				}

			}
, 			{
				"box" : 				{
					"maxclass" : "newobj",
					"text" : "iPhoneXYZ",
					"fontsize" : 18.0,
					"numinlets" : 0,
					"numoutlets" : 3,
					"outlettype" : [ "float", "float", "float" ],
					"fontname" : "Arial",
					"id" : "obj-59",
					"patching_rect" : [ 660.0, 20.0, 100.0, 27.0 ]
				}

			}
, 			{
				"box" : 				{
					"maxclass" : "newobj",
					"text" : "scale 0. 1. 0. 4.",
					"fontsize" : 18.0,
					"numinlets" : 6,
					"numoutlets" : 1,
					"outlettype" : [ "" ],
					"fontname" : "Arial",
					"id" : "obj-53",
					"patching_rect" : [ 340.0, 100.0, 132.0, 27.0 ]
				}

			}
, 			{
				"box" : 				{
					"maxclass" : "flonum",
					"fontsize" : 18.0,
					"numinlets" : 1,
					"numoutlets" : 2,
					"outlettype" : [ "float", "bang" ],
					"fontname" : "Arial",
					"id" : "obj-52",
					"patching_rect" : [ 380.0, 140.0, 50.0, 27.0 ]
				}

			}
, 			{
				"box" : 				{
					"maxclass" : "flonum",
					"fontsize" : 18.0,
					"numinlets" : 1,
					"numoutlets" : 2,
					"outlettype" : [ "float", "bang" ],
					"fontname" : "Arial",
					"id" : "obj-51",
					"patching_rect" : [ 360.0, 60.0, 50.0, 27.0 ]
				}

			}
, 			{
				"box" : 				{
					"maxclass" : "flonum",
					"fontsize" : 18.0,
					"numinlets" : 1,
					"numoutlets" : 2,
					"outlettype" : [ "float", "bang" ],
					"fontname" : "Arial",
					"id" : "obj-50",
					"patching_rect" : [ 360.0, 200.0, 50.0, 27.0 ]
				}

			}
, 			{
				"box" : 				{
					"maxclass" : "gswitch",
					"numinlets" : 3,
					"numoutlets" : 1,
					"outlettype" : [ "" ],
					"id" : "obj-47",
					"patching_rect" : [ 340.0, 160.0, 41.0, 32.0 ]
				}

			}
, 			{
				"box" : 				{
					"maxclass" : "newobj",
					"text" : "iPhoneXYZ",
					"fontsize" : 18.0,
					"numinlets" : 0,
					"numoutlets" : 3,
					"outlettype" : [ "float", "float", "float" ],
					"fontname" : "Arial",
					"id" : "obj-42",
					"patching_rect" : [ 320.0, 20.0, 100.0, 27.0 ]
				}

			}
, 			{
				"box" : 				{
					"maxclass" : "newobj",
					"text" : "prepend store",
					"fontsize" : 12.0,
					"numinlets" : 1,
					"numoutlets" : 1,
					"outlettype" : [ "" ],
					"fontname" : "Arial",
					"id" : "obj-48",
					"patching_rect" : [ 2000.0, 120.0, 85.0, 20.0 ]
				}

			}
, 			{
				"box" : 				{
					"maxclass" : "newobj",
					"varname" : "u842001226",
					"text" : "pattrstorage @savemode 3",
					"fontsize" : 12.0,
					"numinlets" : 1,
					"numoutlets" : 1,
					"outlettype" : [ "" ],
					"fontname" : "Arial",
					"id" : "obj-44",
					"patching_rect" : [ 1980.0, 190.0, 157.0, 20.0 ],
					"saved_object_attributes" : 					{
						"parameter_enable" : 0,
						"paraminitmode" : 0,
						"storage_rect" : [ 365, 44, 816, 172 ],
						"client_rect" : [ 4, 44, 358, 172 ]
					}

				}

			}
, 			{
				"box" : 				{
					"maxclass" : "newobj",
					"varname" : "u633001654",
					"text" : "autopattr",
					"fontsize" : 12.0,
					"numinlets" : 1,
					"numoutlets" : 4,
					"outlettype" : [ "", "", "", "" ],
					"fontname" : "Arial",
					"id" : "obj-45",
					"patching_rect" : [ 1980.0, 280.0, 59.5, 20.0 ]
				}

			}
, 			{
				"box" : 				{
					"maxclass" : "preset",
					"presentation" : 1,
					"numinlets" : 1,
					"numoutlets" : 4,
					"outlettype" : [ "preset", "int", "preset", "int" ],
					"presentation_rect" : [ 300.0, 60.0, 100.0, 78.0 ],
					"id" : "obj-46",
					"patching_rect" : [ 1560.0, 20.0, 100.0, 40.0 ],
					"preset_data" : [ 						{
							"number" : 1,
							"data" : [ 5, "obj-33", "flonum", "float", 0.0, 5, "obj-13", "flonum", "float", 0.0, 5, "obj-18", "toggle", "int", 1, 5, "obj-32", "flonum", "float", 69.0, 5, "obj-31", "flonum", "float", 0.0, 5, "obj-30", "flonum", "float", 1.0, 5, "obj-38", "flonum", "float", 0.669048, 5, "obj-39", "flonum", "float", 0.649252, 5, "obj-40", "flonum", "float", 0.649607, 5, "obj-41", "flonum", "float", 0.863441, 5, "obj-35", "number", "int", 1 ]
						}
, 						{
							"number" : 3,
							"data" : [ 5, "<invalid>", "slider", "float", 0.0, 5, "<invalid>", "slider", "float", 0.0, 5, "<invalid>", "flonum", "float", 0.0, 5, "obj-1", "flonum", "float", 0.0 ]
						}
, 						{
							"number" : 4,
							"data" : [ 5, "<invalid>", "slider", "float", 0.0, 5, "<invalid>", "slider", "float", 0.0, 5, "<invalid>", "flonum", "float", 0.0, 5, "obj-1", "flonum", "float", 0.0 ]
						}
, 						{
							"number" : 5,
							"data" : [ 5, "<invalid>", "slider", "float", 0.0, 5, "<invalid>", "slider", "float", 0.388235, 5, "<invalid>", "flonum", "float", 0.0, 5, "obj-1", "flonum", "float", 0.0 ]
						}
, 						{
							"number" : 6,
							"data" : [ 5, "<invalid>", "slider", "float", 0.0, 5, "<invalid>", "slider", "float", 0.388235, 5, "<invalid>", "flonum", "float", 0.0, 5, "obj-1", "flonum", "float", 0.0 ]
						}
, 						{
							"number" : 7,
							"data" : [ 5, "<invalid>", "slider", "float", 0.0, 5, "<invalid>", "slider", "float", 0.0, 5, "<invalid>", "flonum", "float", 0.0, 5, "obj-1", "flonum", "float", 0.0 ]
						}
, 						{
							"number" : 8,
							"data" : [ 5, "<invalid>", "slider", "float", 0.0, 5, "<invalid>", "slider", "float", 0.788235, 5, "<invalid>", "flonum", "float", 0.0, 5, "obj-1", "flonum", "float", 0.0 ]
						}
, 						{
							"number" : 9,
							"data" : [ 5, "<invalid>", "slider", "float", 0.0, 5, "<invalid>", "slider", "float", 0.0, 5, "<invalid>", "flonum", "float", 0.0, 5, "obj-1", "flonum", "float", 0.0 ]
						}
, 						{
							"number" : 16,
							"data" : [ 5, "<invalid>", "slider", "float", 0.0, 5, "<invalid>", "slider", "float", 0.282353, 5, "<invalid>", "flonum", "float", 0.0, 5, "obj-1", "flonum", "float", 0.0 ]
						}
 ]
				}

			}
, 			{
				"box" : 				{
					"maxclass" : "number",
					"fontsize" : 18.0,
					"numinlets" : 1,
					"numoutlets" : 2,
					"outlettype" : [ "int", "bang" ],
					"fontname" : "Arial",
					"id" : "obj-35",
					"patching_rect" : [ 400.0, 760.0, 50.0, 27.0 ]
				}

			}
, 			{
				"box" : 				{
					"maxclass" : "button",
					"numinlets" : 1,
					"numoutlets" : 1,
					"outlettype" : [ "bang" ],
					"id" : "obj-43",
					"patching_rect" : [ 160.0, 660.0, 20.0, 20.0 ]
				}

			}
, 			{
				"box" : 				{
					"maxclass" : "flonum",
					"fontsize" : 18.0,
					"numinlets" : 1,
					"numoutlets" : 2,
					"outlettype" : [ "float", "bang" ],
					"fontname" : "Arial",
					"id" : "obj-41",
					"patching_rect" : [ 1240.0, 340.0, 50.0, 27.0 ]
				}

			}
, 			{
				"box" : 				{
					"maxclass" : "flonum",
					"fontsize" : 18.0,
					"numinlets" : 1,
					"numoutlets" : 2,
					"outlettype" : [ "float", "bang" ],
					"fontname" : "Arial",
					"id" : "obj-40",
					"patching_rect" : [ 860.0, 340.0, 50.0, 27.0 ]
				}

			}
, 			{
				"box" : 				{
					"maxclass" : "flonum",
					"fontsize" : 18.0,
					"numinlets" : 1,
					"numoutlets" : 2,
					"outlettype" : [ "float", "bang" ],
					"fontname" : "Arial",
					"id" : "obj-39",
					"patching_rect" : [ 480.0, 340.0, 50.0, 27.0 ]
				}

			}
, 			{
				"box" : 				{
					"maxclass" : "flonum",
					"fontsize" : 18.0,
					"numinlets" : 1,
					"numoutlets" : 2,
					"outlettype" : [ "float", "bang" ],
					"fontname" : "Arial",
					"id" : "obj-38",
					"patching_rect" : [ 80.0, 360.0, 50.0, 27.0 ]
				}

			}
, 			{
				"box" : 				{
					"maxclass" : "newobj",
					"text" : "transport",
					"fontsize" : 18.0,
					"numinlets" : 2,
					"numoutlets" : 9,
					"outlettype" : [ "int", "int", "float", "float", "float", "", "int", "float", "" ],
					"fontname" : "Arial",
					"id" : "obj-21",
					"patching_rect" : [ 1661.0, 343.0, 127.0, 27.0 ]
				}

			}
, 			{
				"box" : 				{
					"maxclass" : "ezdac~",
					"numinlets" : 2,
					"numoutlets" : 0,
					"id" : "obj-20",
					"patching_rect" : [ 1738.0, 407.0, 45.0, 45.0 ]
				}

			}
, 			{
				"box" : 				{
					"maxclass" : "bpatcher",
					"numinlets" : 1,
					"numoutlets" : 1,
					"args" : [  ],
					"outlettype" : [ "" ],
					"id" : "obj-36",
					"name" : "noteTimeSelectBPatch.maxpat",
					"patching_rect" : [ 1204.0, 671.0, 104.0, 26.0 ]
				}

			}
, 			{
				"box" : 				{
					"maxclass" : "newobj",
					"text" : "scale 0. 1. 0 20",
					"fontsize" : 18.0,
					"numinlets" : 6,
					"numoutlets" : 1,
					"outlettype" : [ "" ],
					"fontname" : "Arial",
					"id" : "obj-37",
					"patching_rect" : [ 1204.0, 631.0, 132.0, 27.0 ]
				}

			}
, 			{
				"box" : 				{
					"maxclass" : "newobj",
					"text" : "scale 0. 128. 0. 0.9",
					"fontsize" : 18.0,
					"numinlets" : 6,
					"numoutlets" : 1,
					"outlettype" : [ "" ],
					"fontname" : "Arial",
					"id" : "obj-29",
					"patching_rect" : [ 1600.0, 280.0, 162.0, 27.0 ]
				}

			}
, 			{
				"box" : 				{
					"maxclass" : "flonum",
					"fontsize" : 18.0,
					"numinlets" : 1,
					"numoutlets" : 2,
					"outlettype" : [ "float", "bang" ],
					"fontname" : "Arial",
					"id" : "obj-30",
					"patching_rect" : [ 1760.0, 220.0, 50.0, 27.0 ]
				}

			}
, 			{
				"box" : 				{
					"maxclass" : "flonum",
					"fontsize" : 18.0,
					"numinlets" : 1,
					"numoutlets" : 2,
					"outlettype" : [ "float", "bang" ],
					"fontname" : "Arial",
					"id" : "obj-31",
					"patching_rect" : [ 1680.0, 220.0, 50.0, 27.0 ]
				}

			}
, 			{
				"box" : 				{
					"maxclass" : "flonum",
					"fontsize" : 18.0,
					"numinlets" : 1,
					"numoutlets" : 2,
					"outlettype" : [ "float", "bang" ],
					"fontname" : "Arial",
					"id" : "obj-32",
					"patching_rect" : [ 1600.0, 220.0, 50.0, 27.0 ]
				}

			}
, 			{
				"box" : 				{
					"maxclass" : "newobj",
					"text" : "notein",
					"fontsize" : 18.0,
					"numinlets" : 1,
					"numoutlets" : 3,
					"outlettype" : [ "int", "int", "int" ],
					"fontname" : "Arial",
					"id" : "obj-34",
					"patching_rect" : [ 1660.0, 160.0, 59.0, 27.0 ]
				}

			}
, 			{
				"box" : 				{
					"maxclass" : "bpatcher",
					"varname" : "durationRescale",
					"numinlets" : 6,
					"numoutlets" : 1,
					"args" : [  ],
					"outlettype" : [ "" ],
					"id" : "obj-19",
					"name" : "numberController.maxpat",
					"patching_rect" : [ 1200.0, 360.0, 344.0, 180.0 ]
				}

			}
, 			{
				"box" : 				{
					"maxclass" : "newobj",
					"text" : "fractal_iter",
					"fontsize" : 18.0,
					"numinlets" : 3,
					"numoutlets" : 2,
					"outlettype" : [ "float", "float" ],
					"fontname" : "Arial",
					"id" : "obj-22",
					"patching_rect" : [ 1180.0, 300.0, 94.0, 27.0 ]
				}

			}
, 			{
				"box" : 				{
					"maxclass" : "comment",
					"text" : "DURATION",
					"fontsize" : 18.0,
					"numinlets" : 1,
					"numoutlets" : 0,
					"fontname" : "Arial",
					"id" : "obj-25",
					"patching_rect" : [ 1240.0, 0.0, 150.0, 27.0 ]
				}

			}
, 			{
				"box" : 				{
					"maxclass" : "bpatcher",
					"varname" : "durationEnergyLFO",
					"numinlets" : 8,
					"numoutlets" : 3,
					"args" : [  ],
					"outlettype" : [ "float", "bang", "float" ],
					"id" : "obj-26",
					"name" : "LfoWithFunction.maxpat",
					"patching_rect" : [ 1180.0, 40.0, 353.0, 223.0 ]
				}

			}
, 			{
				"box" : 				{
					"maxclass" : "newobj",
					"text" : "noteout",
					"fontsize" : 18.0,
					"numinlets" : 3,
					"numoutlets" : 0,
					"fontname" : "Arial",
					"id" : "obj-24",
					"patching_rect" : [ 200.0, 780.0, 70.0, 27.0 ]
				}

			}
, 			{
				"box" : 				{
					"maxclass" : "newobj",
					"text" : "makenote",
					"fontsize" : 18.0,
					"numinlets" : 3,
					"numoutlets" : 2,
					"outlettype" : [ "float", "float" ],
					"fontname" : "Arial",
					"id" : "obj-23",
					"patching_rect" : [ 200.0, 720.0, 88.0, 27.0 ]
				}

			}
, 			{
				"box" : 				{
					"maxclass" : "toggle",
					"numinlets" : 1,
					"numoutlets" : 1,
					"outlettype" : [ "int" ],
					"id" : "obj-18",
					"patching_rect" : [ 380.0, 600.0, 20.0, 20.0 ]
				}

			}
, 			{
				"box" : 				{
					"maxclass" : "button",
					"numinlets" : 1,
					"numoutlets" : 1,
					"outlettype" : [ "bang" ],
					"id" : "obj-17",
					"patching_rect" : [ 400.0, 700.0, 20.0, 20.0 ]
				}

			}
, 			{
				"box" : 				{
					"maxclass" : "newobj",
					"text" : "metro",
					"fontsize" : 18.0,
					"numinlets" : 2,
					"numoutlets" : 1,
					"outlettype" : [ "bang" ],
					"fontname" : "Arial",
					"id" : "obj-8",
					"patching_rect" : [ 380.0, 660.0, 55.0, 27.0 ]
				}

			}
, 			{
				"box" : 				{
					"maxclass" : "bpatcher",
					"numinlets" : 1,
					"numoutlets" : 1,
					"args" : [  ],
					"outlettype" : [ "" ],
					"id" : "obj-16",
					"name" : "noteTimeSelectBPatch.maxpat",
					"patching_rect" : [ 420.0, 600.0, 104.0, 26.0 ]
				}

			}
, 			{
				"box" : 				{
					"maxclass" : "bpatcher",
					"varname" : "pitchRescale",
					"numinlets" : 6,
					"numoutlets" : 1,
					"args" : [  ],
					"outlettype" : [ "" ],
					"id" : "obj-12",
					"name" : "numberController.maxpat",
					"patching_rect" : [ 60.0, 380.0, 347.0, 177.0 ]
				}

			}
, 			{
				"box" : 				{
					"maxclass" : "flonum",
					"fontsize" : 18.0,
					"numinlets" : 1,
					"numoutlets" : 2,
					"outlettype" : [ "float", "bang" ],
					"fontname" : "Arial",
					"id" : "obj-13",
					"patching_rect" : [ 80.0, 620.0, 50.0, 27.0 ]
				}

			}
, 			{
				"box" : 				{
					"maxclass" : "newobj",
					"text" : "scale 0. 1. 0 128",
					"fontsize" : 18.0,
					"numinlets" : 6,
					"numoutlets" : 1,
					"outlettype" : [ "" ],
					"fontname" : "Arial",
					"id" : "obj-14",
					"patching_rect" : [ 40.0, 580.0, 142.0, 27.0 ]
				}

			}
, 			{
				"box" : 				{
					"maxclass" : "newobj",
					"text" : "fractal_iter",
					"fontsize" : 18.0,
					"numinlets" : 3,
					"numoutlets" : 2,
					"outlettype" : [ "float", "float" ],
					"fontname" : "Arial",
					"id" : "obj-15",
					"patching_rect" : [ 40.0, 320.0, 94.0, 27.0 ]
				}

			}
, 			{
				"box" : 				{
					"maxclass" : "bpatcher",
					"varname" : "timeRescale",
					"numinlets" : 6,
					"numoutlets" : 1,
					"args" : [  ],
					"outlettype" : [ "" ],
					"id" : "obj-7",
					"name" : "numberController.maxpat",
					"patching_rect" : [ 440.0, 360.0, 345.0, 178.0 ]
				}

			}
, 			{
				"box" : 				{
					"maxclass" : "newobj",
					"text" : "scale 0. 1. 0 20",
					"fontsize" : 18.0,
					"numinlets" : 6,
					"numoutlets" : 1,
					"outlettype" : [ "" ],
					"fontname" : "Arial",
					"id" : "obj-9",
					"patching_rect" : [ 420.0, 560.0, 132.0, 27.0 ]
				}

			}
, 			{
				"box" : 				{
					"maxclass" : "newobj",
					"text" : "fractal_iter",
					"fontsize" : 18.0,
					"numinlets" : 3,
					"numoutlets" : 2,
					"outlettype" : [ "float", "float" ],
					"fontname" : "Arial",
					"id" : "obj-10",
					"patching_rect" : [ 420.0, 300.0, 94.0, 27.0 ]
				}

			}
, 			{
				"box" : 				{
					"maxclass" : "bpatcher",
					"varname" : "volumeRescale",
					"numinlets" : 6,
					"numoutlets" : 1,
					"args" : [  ],
					"outlettype" : [ "" ],
					"id" : "obj-6",
					"name" : "numberController.maxpat",
					"patching_rect" : [ 820.0, 360.0, 344.0, 180.0 ]
				}

			}
, 			{
				"box" : 				{
					"maxclass" : "flonum",
					"fontsize" : 18.0,
					"numinlets" : 1,
					"numoutlets" : 2,
					"outlettype" : [ "float", "bang" ],
					"fontname" : "Arial",
					"id" : "obj-33",
					"patching_rect" : [ 840.0, 600.0, 50.0, 27.0 ]
				}

			}
, 			{
				"box" : 				{
					"maxclass" : "newobj",
					"text" : "scale 0. 1. 0 128",
					"fontsize" : 18.0,
					"numinlets" : 6,
					"numoutlets" : 1,
					"outlettype" : [ "" ],
					"fontname" : "Arial",
					"id" : "obj-27",
					"patching_rect" : [ 800.0, 560.0, 142.0, 27.0 ]
				}

			}
, 			{
				"box" : 				{
					"maxclass" : "newobj",
					"text" : "fractal_iter",
					"fontsize" : 18.0,
					"numinlets" : 3,
					"numoutlets" : 2,
					"outlettype" : [ "float", "float" ],
					"fontname" : "Arial",
					"id" : "obj-28",
					"patching_rect" : [ 800.0, 300.0, 94.0, 27.0 ]
				}

			}
, 			{
				"box" : 				{
					"maxclass" : "comment",
					"text" : "VOLUME",
					"fontsize" : 18.0,
					"numinlets" : 1,
					"numoutlets" : 0,
					"fontname" : "Arial",
					"id" : "obj-5",
					"patching_rect" : [ 860.0, 0.0, 150.0, 27.0 ]
				}

			}
, 			{
				"box" : 				{
					"maxclass" : "comment",
					"text" : "TIME",
					"fontsize" : 18.0,
					"numinlets" : 1,
					"numoutlets" : 0,
					"fontname" : "Arial",
					"id" : "obj-4",
					"patching_rect" : [ 520.0, 0.0, 150.0, 27.0 ]
				}

			}
, 			{
				"box" : 				{
					"maxclass" : "comment",
					"text" : "PITCH",
					"fontsize" : 18.0,
					"numinlets" : 1,
					"numoutlets" : 0,
					"fontname" : "Arial",
					"id" : "obj-3",
					"patching_rect" : [ 140.0, 0.0, 150.0, 27.0 ]
				}

			}
, 			{
				"box" : 				{
					"maxclass" : "bpatcher",
					"varname" : "volumeEnergyLFO",
					"numinlets" : 8,
					"numoutlets" : 3,
					"args" : [  ],
					"outlettype" : [ "float", "bang", "float" ],
					"id" : "obj-2",
					"name" : "LfoWithFunction.maxpat",
					"patching_rect" : [ 800.0, 40.0, 353.0, 223.0 ]
				}

			}
, 			{
				"box" : 				{
					"maxclass" : "bpatcher",
					"varname" : "timeEnergyLFO",
					"numinlets" : 8,
					"numoutlets" : 3,
					"args" : [  ],
					"outlettype" : [ "float", "bang", "float" ],
					"id" : "obj-1",
					"name" : "LfoWithFunction.maxpat",
					"patching_rect" : [ 420.0, 40.0, 250.0, 228.0 ]
				}

			}
, 			{
				"box" : 				{
					"maxclass" : "bpatcher",
					"varname" : "pitchEnergyLFO",
					"numinlets" : 8,
					"numoutlets" : 3,
					"args" : [  ],
					"outlettype" : [ "float", "bang", "float" ],
					"id" : "obj-11",
					"name" : "LfoWithFunction.maxpat",
					"patching_rect" : [ 40.0, 40.0, 254.0, 227.0 ]
				}

			}
 ],
		"lines" : [ 			{
				"patchline" : 				{
					"source" : [ "obj-49", 0 ],
					"destination" : [ "obj-10", 2 ],
					"hidden" : 0,
					"midpoints" : [  ]
				}

			}
, 			{
				"patchline" : 				{
					"source" : [ "obj-26", 0 ],
					"destination" : [ "obj-22", 1 ],
					"hidden" : 0,
					"midpoints" : [ 1189.5, 276.0, 1227.0, 276.0 ]
				}

			}
, 			{
				"patchline" : 				{
					"source" : [ "obj-2", 0 ],
					"destination" : [ "obj-28", 1 ],
					"hidden" : 0,
					"midpoints" : [ 809.5, 276.0, 847.0, 276.0 ]
				}

			}
, 			{
				"patchline" : 				{
					"source" : [ "obj-11", 0 ],
					"destination" : [ "obj-15", 1 ],
					"hidden" : 0,
					"midpoints" : [ 49.5, 284.0, 87.0, 293.0 ]
				}

			}
, 			{
				"patchline" : 				{
					"source" : [ "obj-19", 0 ],
					"destination" : [ "obj-37", 0 ],
					"hidden" : 0,
					"midpoints" : [ 1216.0, 621.0, 1213.5, 629.0 ]
				}

			}
, 			{
				"patchline" : 				{
					"source" : [ "obj-22", 0 ],
					"destination" : [ "obj-19", 0 ],
					"hidden" : 0,
					"midpoints" : [ 1189.5, 353.0, 1209.5, 353.0 ]
				}

			}
, 			{
				"patchline" : 				{
					"source" : [ "obj-15", 0 ],
					"destination" : [ "obj-12", 0 ],
					"hidden" : 0,
					"midpoints" : [ 49.5, 373.0, 69.5, 373.0 ]
				}

			}
, 			{
				"patchline" : 				{
					"source" : [ "obj-12", 0 ],
					"destination" : [ "obj-14", 0 ],
					"hidden" : 0,
					"midpoints" : [ 69.5, 566.0, 49.5, 566.0 ]
				}

			}
, 			{
				"patchline" : 				{
					"source" : [ "obj-7", 0 ],
					"destination" : [ "obj-9", 0 ],
					"hidden" : 0,
					"midpoints" : [ 449.5, 546.0, 429.5, 546.0 ]
				}

			}
, 			{
				"patchline" : 				{
					"source" : [ "obj-10", 0 ],
					"destination" : [ "obj-7", 0 ],
					"hidden" : 0,
					"midpoints" : [ 429.5, 353.0, 449.5, 353.0 ]
				}

			}
, 			{
				"patchline" : 				{
					"source" : [ "obj-6", 0 ],
					"destination" : [ "obj-27", 0 ],
					"hidden" : 0,
					"midpoints" : [ 829.5, 546.0, 809.5, 546.0 ]
				}

			}
, 			{
				"patchline" : 				{
					"source" : [ "obj-28", 0 ],
					"destination" : [ "obj-6", 0 ],
					"hidden" : 0,
					"midpoints" : [ 809.5, 353.0, 829.5, 353.0 ]
				}

			}
, 			{
				"patchline" : 				{
					"source" : [ "obj-48", 0 ],
					"destination" : [ "obj-44", 0 ],
					"hidden" : 0,
					"midpoints" : [  ]
				}

			}
, 			{
				"patchline" : 				{
					"source" : [ "obj-46", 1 ],
					"destination" : [ "obj-44", 0 ],
					"hidden" : 0,
					"midpoints" : [ 1596.5, 92.0, 1989.5, 92.0 ]
				}

			}
, 			{
				"patchline" : 				{
					"source" : [ "obj-44", 0 ],
					"destination" : [ "obj-45", 0 ],
					"hidden" : 0,
					"midpoints" : [  ]
				}

			}
, 			{
				"patchline" : 				{
					"source" : [ "obj-46", 3 ],
					"destination" : [ "obj-48", 0 ],
					"hidden" : 0,
					"midpoints" : [ 1970.0, 150.0, 1970.0, 118.0, 2009.5, 118.0 ]
				}

			}
, 			{
				"patchline" : 				{
					"source" : [ "obj-35", 0 ],
					"destination" : [ "obj-24", 2 ],
					"hidden" : 0,
					"midpoints" : [  ]
				}

			}
, 			{
				"patchline" : 				{
					"source" : [ "obj-36", 0 ],
					"destination" : [ "obj-23", 2 ],
					"hidden" : 0,
					"midpoints" : [ 1213.5, 722.0, 450.0, 722.0, 387.0, 737.0, 278.5, 709.0 ]
				}

			}
, 			{
				"patchline" : 				{
					"source" : [ "obj-37", 0 ],
					"destination" : [ "obj-36", 0 ],
					"hidden" : 0,
					"midpoints" : [  ]
				}

			}
, 			{
				"patchline" : 				{
					"source" : [ "obj-29", 0 ],
					"destination" : [ "obj-15", 2 ],
					"hidden" : 0,
					"midpoints" : [ 1609.5, 320.0, 1299.0, 320.0, 1261.0, 285.0, 109.0, 296.0 ]
				}

			}
, 			{
				"patchline" : 				{
					"source" : [ "obj-29", 0 ],
					"destination" : [ "obj-10", 2 ],
					"hidden" : 0,
					"midpoints" : [ 1609.5, 320.0, 1301.0, 320.0, 1269.0, 284.0, 504.5, 284.0 ]
				}

			}
, 			{
				"patchline" : 				{
					"source" : [ "obj-29", 0 ],
					"destination" : [ "obj-28", 2 ],
					"hidden" : 0,
					"midpoints" : [ 1609.5, 324.0, 1294.0, 324.0, 1267.0, 286.0, 884.5, 286.0 ]
				}

			}
, 			{
				"patchline" : 				{
					"source" : [ "obj-29", 0 ],
					"destination" : [ "obj-22", 2 ],
					"hidden" : 0,
					"midpoints" : [ 1609.5, 306.0, 1609.5, 321.0, 1298.0, 321.0, 1264.5, 286.0 ]
				}

			}
, 			{
				"patchline" : 				{
					"source" : [ "obj-34", 2 ],
					"destination" : [ "obj-30", 0 ],
					"hidden" : 0,
					"midpoints" : [ 1789.0, 197.0 ]
				}

			}
, 			{
				"patchline" : 				{
					"source" : [ "obj-34", 1 ],
					"destination" : [ "obj-31", 0 ],
					"hidden" : 0,
					"midpoints" : [ 1689.5, 219.0 ]
				}

			}
, 			{
				"patchline" : 				{
					"source" : [ "obj-34", 0 ],
					"destination" : [ "obj-32", 0 ],
					"hidden" : 0,
					"midpoints" : [  ]
				}

			}
, 			{
				"patchline" : 				{
					"source" : [ "obj-34", 0 ],
					"destination" : [ "obj-29", 0 ],
					"hidden" : 0,
					"midpoints" : [ 1669.5, 246.0, 1609.5, 265.0 ]
				}

			}
, 			{
				"patchline" : 				{
					"source" : [ "obj-8", 0 ],
					"destination" : [ "obj-22", 0 ],
					"hidden" : 0,
					"midpoints" : [ 389.5, 701.0, 313.0, 701.0, 373.0, 569.0, 421.0, 541.0, 408.0, 280.0, 1189.5, 280.0 ]
				}

			}
, 			{
				"patchline" : 				{
					"source" : [ "obj-27", 0 ],
					"destination" : [ "obj-23", 1 ],
					"hidden" : 0,
					"midpoints" : [ 809.5, 726.0, 439.0, 716.0, 425.0, 729.0, 390.0, 729.0, 378.0, 712.0, 244.0, 712.0 ]
				}

			}
, 			{
				"patchline" : 				{
					"source" : [ "obj-14", 0 ],
					"destination" : [ "obj-23", 0 ],
					"hidden" : 0,
					"midpoints" : [ 49.5, 691.0, 209.5, 706.0 ]
				}

			}
, 			{
				"patchline" : 				{
					"source" : [ "obj-23", 0 ],
					"destination" : [ "obj-24", 0 ],
					"hidden" : 0,
					"midpoints" : [  ]
				}

			}
, 			{
				"patchline" : 				{
					"source" : [ "obj-23", 1 ],
					"destination" : [ "obj-24", 1 ],
					"hidden" : 0,
					"midpoints" : [  ]
				}

			}
, 			{
				"patchline" : 				{
					"source" : [ "obj-8", 0 ],
					"destination" : [ "obj-28", 0 ],
					"hidden" : 0,
					"midpoints" : [ 389.5, 709.0, 311.0, 709.0, 382.0, 562.0, 413.0, 533.0, 413.0, 370.0, 399.0, 293.0, 416.0, 280.0, 797.0, 287.0 ]
				}

			}
, 			{
				"patchline" : 				{
					"source" : [ "obj-8", 0 ],
					"destination" : [ "obj-10", 0 ],
					"hidden" : 0,
					"midpoints" : [ 389.5, 703.0, 327.0, 703.0, 339.0, 596.0, 408.0, 561.0, 408.0, 351.0, 399.0, 284.0, 429.5, 291.0 ]
				}

			}
, 			{
				"patchline" : 				{
					"source" : [ "obj-8", 0 ],
					"destination" : [ "obj-15", 0 ],
					"hidden" : 0,
					"midpoints" : [ 389.5, 702.0, 312.0, 702.0, 340.0, 588.0, 422.0, 511.0, 415.0, 361.0, 139.0, 286.0, 49.5, 305.0 ]
				}

			}
, 			{
				"patchline" : 				{
					"source" : [ "obj-18", 0 ],
					"destination" : [ "obj-8", 0 ],
					"hidden" : 0,
					"midpoints" : [  ]
				}

			}
, 			{
				"patchline" : 				{
					"source" : [ "obj-8", 0 ],
					"destination" : [ "obj-17", 0 ],
					"hidden" : 0,
					"midpoints" : [ 389.5, 692.0, 409.5, 692.0 ]
				}

			}
, 			{
				"patchline" : 				{
					"source" : [ "obj-9", 0 ],
					"destination" : [ "obj-16", 0 ],
					"hidden" : 0,
					"midpoints" : [  ]
				}

			}
, 			{
				"patchline" : 				{
					"source" : [ "obj-16", 0 ],
					"destination" : [ "obj-8", 1 ],
					"hidden" : 0,
					"midpoints" : [  ]
				}

			}
, 			{
				"patchline" : 				{
					"source" : [ "obj-14", 0 ],
					"destination" : [ "obj-13", 0 ],
					"hidden" : 0,
					"midpoints" : [ 49.5, 613.0, 89.5, 613.0 ]
				}

			}
, 			{
				"patchline" : 				{
					"source" : [ "obj-27", 0 ],
					"destination" : [ "obj-33", 0 ],
					"hidden" : 0,
					"midpoints" : [ 809.5, 593.0, 849.5, 593.0 ]
				}

			}
, 			{
				"patchline" : 				{
					"source" : [ "obj-15", 0 ],
					"destination" : [ "obj-38", 0 ],
					"hidden" : 0,
					"midpoints" : [  ]
				}

			}
, 			{
				"patchline" : 				{
					"source" : [ "obj-10", 0 ],
					"destination" : [ "obj-39", 0 ],
					"hidden" : 0,
					"midpoints" : [  ]
				}

			}
, 			{
				"patchline" : 				{
					"source" : [ "obj-28", 0 ],
					"destination" : [ "obj-40", 0 ],
					"hidden" : 0,
					"midpoints" : [ 809.5, 340.0, 869.5, 340.0 ]
				}

			}
, 			{
				"patchline" : 				{
					"source" : [ "obj-22", 0 ],
					"destination" : [ "obj-41", 0 ],
					"hidden" : 0,
					"midpoints" : [  ]
				}

			}
, 			{
				"patchline" : 				{
					"source" : [ "obj-14", 0 ],
					"destination" : [ "obj-43", 0 ],
					"hidden" : 0,
					"midpoints" : [ 49.5, 671.0, 155.0, 659.0, 163.0, 640.0, 169.5, 640.0 ]
				}

			}
, 			{
				"patchline" : 				{
					"source" : [ "obj-47", 0 ],
					"destination" : [ "obj-15", 1 ],
					"hidden" : 0,
					"midpoints" : [ 337.0, 296.0, 87.0, 303.0 ]
				}

			}
, 			{
				"patchline" : 				{
					"source" : [ "obj-11", 0 ],
					"destination" : [ "obj-47", 2 ],
					"hidden" : 0,
					"midpoints" : [ 49.5, 274.0, 320.0, 274.0, 320.0, 146.0, 371.5, 146.0 ]
				}

			}
, 			{
				"patchline" : 				{
					"source" : [ "obj-47", 0 ],
					"destination" : [ "obj-50", 0 ],
					"hidden" : 0,
					"midpoints" : [  ]
				}

			}
, 			{
				"patchline" : 				{
					"source" : [ "obj-42", 0 ],
					"destination" : [ "obj-51", 0 ],
					"hidden" : 0,
					"midpoints" : [ 329.5, 58.0, 369.5, 58.0 ]
				}

			}
, 			{
				"patchline" : 				{
					"source" : [ "obj-42", 0 ],
					"destination" : [ "obj-53", 0 ],
					"hidden" : 0,
					"midpoints" : [  ]
				}

			}
, 			{
				"patchline" : 				{
					"source" : [ "obj-53", 0 ],
					"destination" : [ "obj-52", 0 ],
					"hidden" : 0,
					"midpoints" : [  ]
				}

			}
, 			{
				"patchline" : 				{
					"source" : [ "obj-53", 0 ],
					"destination" : [ "obj-47", 1 ],
					"hidden" : 0,
					"midpoints" : [  ]
				}

			}
, 			{
				"patchline" : 				{
					"source" : [ "obj-54", 0 ],
					"destination" : [ "obj-58", 1 ],
					"hidden" : 0,
					"midpoints" : [  ]
				}

			}
, 			{
				"patchline" : 				{
					"source" : [ "obj-54", 0 ],
					"destination" : [ "obj-55", 0 ],
					"hidden" : 0,
					"midpoints" : [  ]
				}

			}
, 			{
				"patchline" : 				{
					"source" : [ "obj-58", 0 ],
					"destination" : [ "obj-57", 0 ],
					"hidden" : 0,
					"midpoints" : [  ]
				}

			}
, 			{
				"patchline" : 				{
					"source" : [ "obj-58", 0 ],
					"destination" : [ "obj-10", 1 ],
					"hidden" : 0,
					"midpoints" : [ 689.5, 278.0, 467.0, 278.0 ]
				}

			}
, 			{
				"patchline" : 				{
					"source" : [ "obj-1", 0 ],
					"destination" : [ "obj-58", 2 ],
					"hidden" : 0,
					"midpoints" : [ 429.5, 275.0, 684.0, 275.0, 684.0, 213.0, 677.0, 213.0, 677.0, 146.0, 711.5, 146.0 ]
				}

			}
, 			{
				"patchline" : 				{
					"source" : [ "obj-59", 1 ],
					"destination" : [ "obj-56", 0 ],
					"hidden" : 0,
					"midpoints" : [ 710.0, 47.0 ]
				}

			}
, 			{
				"patchline" : 				{
					"source" : [ "obj-59", 1 ],
					"destination" : [ "obj-54", 0 ],
					"hidden" : 0,
					"midpoints" : [ 689.0, 63.0 ]
				}

			}
 ]
	}

}
