{
	"patcher" : 	{
		"fileversion" : 1,
		"rect" : [ 530.0, 120.0, 1018.0, 838.0 ],
		"bglocked" : 0,
		"defrect" : [ 530.0, 120.0, 1018.0, 838.0 ],
		"openrect" : [ 0.0, 0.0, 0.0, 0.0 ],
		"openinpresentation" : 0,
		"default_fontsize" : 12.0,
		"default_fontface" : 0,
		"default_fontname" : "Arial",
		"gridonopen" : 0,
		"gridsize" : [ 15.0, 15.0 ],
		"gridsnaponopen" : 0,
		"toolbarvisible" : 1,
		"boxanimatetime" : 200,
		"imprint" : 0,
		"enablehscroll" : 1,
		"enablevscroll" : 1,
		"devicewidth" : 0.0,
		"boxes" : [ 			{
				"box" : 				{
					"maxclass" : "comment",
					"text" : "little boxes activate individual sides",
					"linecount" : 2,
					"presentation_linecount" : 2,
					"patching_rect" : [ 361.0, 202.0, 150.0, 34.0 ],
					"fontsize" : 12.0,
					"presentation" : 1,
					"numoutlets" : 0,
					"id" : "obj-46",
					"fontname" : "Arial",
					"presentation_rect" : [ 348.0, 148.0, 150.0, 34.0 ],
					"numinlets" : 1
				}

			}
, 			{
				"box" : 				{
					"maxclass" : "comment",
					"text" : "this is the current pitch",
					"patching_rect" : [ 240.0, 568.0, 150.0, 20.0 ],
					"fontsize" : 12.0,
					"presentation" : 1,
					"numoutlets" : 0,
					"id" : "obj-45",
					"fontname" : "Arial",
					"presentation_rect" : [ 680.0, 524.0, 150.0, 20.0 ],
					"numinlets" : 1
				}

			}
, 			{
				"box" : 				{
					"maxclass" : "comment",
					"text" : "this is the current fractal number output",
					"linecount" : 2,
					"presentation_linecount" : 2,
					"patching_rect" : [ 323.0, 360.0, 150.0, 34.0 ],
					"fontsize" : 12.0,
					"presentation" : 1,
					"numoutlets" : 0,
					"id" : "obj-44",
					"fontname" : "Arial",
					"presentation_rect" : [ 685.0, 308.0, 150.0, 34.0 ],
					"numinlets" : 1
				}

			}
, 			{
				"box" : 				{
					"maxclass" : "comment",
					"text" : "this is the current fractal number output",
					"linecount" : 2,
					"presentation_linecount" : 2,
					"patching_rect" : [ 308.0, 345.0, 150.0, 34.0 ],
					"fontsize" : 12.0,
					"presentation" : 1,
					"numoutlets" : 0,
					"id" : "obj-43",
					"fontname" : "Arial",
					"presentation_rect" : [ 239.0, 311.0, 150.0, 34.0 ],
					"numinlets" : 1
				}

			}
, 			{
				"box" : 				{
					"maxclass" : "comment",
					"text" : "this is the current pitch",
					"patching_rect" : [ 225.0, 553.0, 150.0, 20.0 ],
					"fontsize" : 12.0,
					"presentation" : 1,
					"numoutlets" : 0,
					"id" : "obj-42",
					"fontname" : "Arial",
					"presentation_rect" : [ 225.0, 543.0, 150.0, 20.0 ],
					"numinlets" : 1
				}

			}
, 			{
				"box" : 				{
					"maxclass" : "comment",
					"text" : "this sets the pitch range",
					"patching_rect" : [ 197.0, 406.0, 150.0, 20.0 ],
					"fontsize" : 12.0,
					"presentation" : 1,
					"numoutlets" : 0,
					"id" : "obj-41",
					"fontname" : "Arial",
					"presentation_rect" : [ 574.0, 396.0, 150.0, 20.0 ],
					"numinlets" : 1
				}

			}
, 			{
				"box" : 				{
					"maxclass" : "comment",
					"text" : "this sets the pitch range",
					"patching_rect" : [ 182.0, 391.0, 150.0, 20.0 ],
					"fontsize" : 12.0,
					"presentation" : 1,
					"numoutlets" : 0,
					"id" : "obj-40",
					"fontname" : "Arial",
					"presentation_rect" : [ 116.0, 404.0, 150.0, 20.0 ],
					"numinlets" : 1
				}

			}
, 			{
				"box" : 				{
					"maxclass" : "comment",
					"text" : "this is R, the fractal energy level. values between 3 and 4 are especially interesting",
					"linecount" : 4,
					"presentation_linecount" : 4,
					"patching_rect" : [ 152.0, 170.0, 150.0, 62.0 ],
					"fontsize" : 12.0,
					"presentation" : 1,
					"numoutlets" : 0,
					"id" : "obj-39",
					"fontname" : "Arial",
					"presentation_rect" : [ 658.0, 65.0, 154.0, 62.0 ],
					"numinlets" : 1
				}

			}
, 			{
				"box" : 				{
					"maxclass" : "comment",
					"text" : "this is R, the fractal energy level. values between 3 and 4 are especially interesting",
					"linecount" : 4,
					"presentation_linecount" : 4,
					"patching_rect" : [ 137.0, 155.0, 150.0, 62.0 ],
					"fontsize" : 12.0,
					"presentation" : 1,
					"numoutlets" : 0,
					"id" : "obj-38",
					"fontname" : "Arial",
					"presentation_rect" : [ 193.0, 55.0, 154.0, 62.0 ],
					"numinlets" : 1
				}

			}
, 			{
				"box" : 				{
					"maxclass" : "comment",
					"text" : "this side controls left channel pitch and right channel beat",
					"linecount" : 3,
					"presentation_linecount" : 2,
					"patching_rect" : [ 357.0, 220.0, 150.0, 48.0 ],
					"fontsize" : 12.0,
					"presentation" : 1,
					"numoutlets" : 0,
					"id" : "obj-37",
					"fontname" : "Arial",
					"presentation_rect" : [ 673.0, 17.0, 169.0, 34.0 ],
					"numinlets" : 1
				}

			}
, 			{
				"box" : 				{
					"maxclass" : "comment",
					"text" : "this side controls right channel pitch and left channel beat",
					"linecount" : 3,
					"presentation_linecount" : 3,
					"patching_rect" : [ 342.0, 205.0, 150.0, 48.0 ],
					"fontsize" : 12.0,
					"presentation" : 1,
					"numoutlets" : 0,
					"id" : "obj-36",
					"fontname" : "Arial",
					"presentation_rect" : [ 11.0, 18.0, 150.0, 48.0 ],
					"numinlets" : 1
				}

			}
, 			{
				"box" : 				{
					"maxclass" : "comment",
					"text" : "start it all with this button",
					"patching_rect" : [ 356.0, 275.0, 150.0, 20.0 ],
					"fontsize" : 12.0,
					"presentation" : 1,
					"numoutlets" : 0,
					"id" : "obj-35",
					"fontname" : "Arial",
					"presentation_rect" : [ 347.0, 17.0, 150.0, 20.0 ],
					"numinlets" : 1
				}

			}
, 			{
				"box" : 				{
					"maxclass" : "flonum",
					"patching_rect" : [ 954.0, 393.0, 50.0, 20.0 ],
					"fontsize" : 12.0,
					"presentation" : 1,
					"numoutlets" : 2,
					"outlettype" : [ "float", "bang" ],
					"id" : "obj-34",
					"fontname" : "Arial",
					"presentation_rect" : [ 749.0, 465.0, 50.0, 20.0 ],
					"numinlets" : 1
				}

			}
, 			{
				"box" : 				{
					"maxclass" : "flonum",
					"patching_rect" : [ 827.0, 389.0, 50.0, 20.0 ],
					"fontsize" : 12.0,
					"presentation" : 1,
					"numoutlets" : 2,
					"outlettype" : [ "float", "bang" ],
					"id" : "obj-33",
					"fontname" : "Arial",
					"presentation_rect" : [ 501.0, 459.0, 50.0, 20.0 ],
					"numinlets" : 1
				}

			}
, 			{
				"box" : 				{
					"maxclass" : "flonum",
					"patching_rect" : [ 571.0, 387.0, 50.0, 20.0 ],
					"fontsize" : 12.0,
					"presentation" : 1,
					"numoutlets" : 2,
					"outlettype" : [ "float", "bang" ],
					"id" : "obj-28",
					"fontname" : "Arial",
					"presentation_rect" : [ 282.0, 465.0, 50.0, 20.0 ],
					"numinlets" : 1
				}

			}
, 			{
				"box" : 				{
					"maxclass" : "flonum",
					"patching_rect" : [ 408.0, 385.0, 50.0, 20.0 ],
					"fontsize" : 12.0,
					"presentation" : 1,
					"numoutlets" : 2,
					"outlettype" : [ "float", "bang" ],
					"id" : "obj-13",
					"fontname" : "Arial",
					"presentation_rect" : [ 37.0, 466.0, 50.0, 20.0 ],
					"numinlets" : 1
				}

			}
, 			{
				"box" : 				{
					"maxclass" : "message",
					"text" : "1.",
					"patching_rect" : [ 465.0, 47.0, 32.5, 18.0 ],
					"fontsize" : 12.0,
					"numoutlets" : 1,
					"outlettype" : [ "" ],
					"id" : "obj-32",
					"fontname" : "Arial",
					"numinlets" : 2
				}

			}
, 			{
				"box" : 				{
					"maxclass" : "newobj",
					"text" : "loadbang",
					"patching_rect" : [ 463.0, 13.0, 60.0, 20.0 ],
					"fontsize" : 12.0,
					"numoutlets" : 1,
					"outlettype" : [ "bang" ],
					"id" : "obj-31",
					"fontname" : "Arial",
					"numinlets" : 1
				}

			}
, 			{
				"box" : 				{
					"maxclass" : "rslider",
					"size" : 2000.0,
					"patching_rect" : [ 779.0, 351.0, 222.0, 23.0 ],
					"presentation" : 1,
					"numoutlets" : 2,
					"floatoutput" : 1,
					"orientation" : 1,
					"outlettype" : [ "", "" ],
					"id" : "obj-30",
					"presentation_rect" : [ 500.0, 428.0, 296.0, 23.0 ],
					"numinlets" : 2
				}

			}
, 			{
				"box" : 				{
					"maxclass" : "rslider",
					"size" : 2000.0,
					"patching_rect" : [ 397.0, 357.0, 222.0, 23.0 ],
					"presentation" : 1,
					"numoutlets" : 2,
					"floatoutput" : 1,
					"orientation" : 1,
					"outlettype" : [ "", "" ],
					"id" : "obj-29",
					"presentation_rect" : [ 38.0, 437.0, 291.0, 23.0 ],
					"numinlets" : 2
				}

			}
, 			{
				"box" : 				{
					"maxclass" : "toggle",
					"patching_rect" : [ 63.0, 17.0, 20.0, 20.0 ],
					"presentation" : 1,
					"numoutlets" : 1,
					"outlettype" : [ "int" ],
					"id" : "obj-27",
					"presentation_rect" : [ 393.0, 41.0, 55.0, 55.0 ],
					"numinlets" : 1
				}

			}
, 			{
				"box" : 				{
					"maxclass" : "newobj",
					"text" : "scale 0. 1. 0. 1000.",
					"patching_rect" : [ 623.0, 145.0, 112.0, 20.0 ],
					"fontsize" : 12.0,
					"numoutlets" : 1,
					"outlettype" : [ "" ],
					"id" : "obj-26",
					"fontname" : "Arial",
					"numinlets" : 6
				}

			}
, 			{
				"box" : 				{
					"maxclass" : "newobj",
					"text" : "scale 0. 1. 0. 1000.",
					"patching_rect" : [ 241.0, 158.0, 112.0, 20.0 ],
					"fontsize" : 12.0,
					"numoutlets" : 1,
					"outlettype" : [ "" ],
					"id" : "obj-25",
					"fontname" : "Arial",
					"numinlets" : 6
				}

			}
, 			{
				"box" : 				{
					"maxclass" : "flonum",
					"patching_rect" : [ 733.0, 468.0, 50.0, 20.0 ],
					"fontsize" : 12.0,
					"presentation" : 1,
					"numoutlets" : 2,
					"outlettype" : [ "float", "bang" ],
					"id" : "obj-14",
					"fontname" : "Arial",
					"presentation_rect" : [ 621.0, 524.0, 50.0, 20.0 ],
					"numinlets" : 1
				}

			}
, 			{
				"box" : 				{
					"maxclass" : "newobj",
					"text" : "scale 0. 1. 10. 5000.",
					"patching_rect" : [ 705.0, 439.0, 119.0, 20.0 ],
					"fontsize" : 12.0,
					"numoutlets" : 1,
					"outlettype" : [ "" ],
					"id" : "obj-15",
					"fontname" : "Arial",
					"numinlets" : 6
				}

			}
, 			{
				"box" : 				{
					"maxclass" : "newobj",
					"text" : "cycle~ 440",
					"patching_rect" : [ 692.0, 500.0, 68.0, 20.0 ],
					"fontsize" : 12.0,
					"numoutlets" : 1,
					"outlettype" : [ "signal" ],
					"id" : "obj-16",
					"fontname" : "Arial",
					"numinlets" : 2
				}

			}
, 			{
				"box" : 				{
					"maxclass" : "toggle",
					"patching_rect" : [ 575.0, 136.0, 20.0, 20.0 ],
					"presentation" : 1,
					"numoutlets" : 1,
					"outlettype" : [ "int" ],
					"id" : "obj-17",
					"presentation_rect" : [ 424.0, 115.0, 20.0, 20.0 ],
					"numinlets" : 1
				}

			}
, 			{
				"box" : 				{
					"maxclass" : "flonum",
					"patching_rect" : [ 685.0, 181.0, 70.0, 20.0 ],
					"fontsize" : 12.0,
					"presentation" : 1,
					"numoutlets" : 2,
					"outlettype" : [ "float", "bang" ],
					"id" : "obj-18",
					"fontname" : "Arial",
					"presentation_rect" : [ 664.0, 242.0, 70.0, 20.0 ],
					"numinlets" : 1
				}

			}
, 			{
				"box" : 				{
					"maxclass" : "newobj",
					"text" : "loadbang",
					"patching_rect" : [ 800.0, 189.0, 60.0, 20.0 ],
					"fontsize" : 12.0,
					"numoutlets" : 1,
					"outlettype" : [ "bang" ],
					"id" : "obj-19",
					"fontname" : "Arial",
					"numinlets" : 1
				}

			}
, 			{
				"box" : 				{
					"maxclass" : "message",
					"text" : "0.5",
					"patching_rect" : [ 786.0, 217.0, 32.5, 18.0 ],
					"fontsize" : 12.0,
					"numoutlets" : 1,
					"outlettype" : [ "" ],
					"id" : "obj-20",
					"fontname" : "Arial",
					"numinlets" : 2
				}

			}
, 			{
				"box" : 				{
					"maxclass" : "flonum",
					"patching_rect" : [ 711.0, 289.0, 70.0, 20.0 ],
					"fontsize" : 12.0,
					"presentation" : 1,
					"numoutlets" : 2,
					"outlettype" : [ "float", "bang" ],
					"id" : "obj-21",
					"fontname" : "Arial",
					"presentation_rect" : [ 608.0, 307.0, 70.0, 20.0 ],
					"numinlets" : 1
				}

			}
, 			{
				"box" : 				{
					"maxclass" : "slider",
					"size" : 4.0,
					"patching_rect" : [ 746.0, 37.0, 20.0, 140.0 ],
					"presentation" : 1,
					"numoutlets" : 1,
					"floatoutput" : 1,
					"outlettype" : [ "" ],
					"id" : "obj-22",
					"presentation_rect" : [ 627.0, 16.0, 20.0, 250.0 ],
					"relative" : 1,
					"numinlets" : 1
				}

			}
, 			{
				"box" : 				{
					"maxclass" : "newobj",
					"text" : "metro 400",
					"patching_rect" : [ 576.0, 201.0, 65.0, 20.0 ],
					"fontsize" : 12.0,
					"numoutlets" : 1,
					"outlettype" : [ "bang" ],
					"id" : "obj-23",
					"fontname" : "Arial",
					"numinlets" : 2
				}

			}
, 			{
				"box" : 				{
					"maxclass" : "newobj",
					"text" : "fractal_iter",
					"patching_rect" : [ 722.0, 244.0, 67.0, 20.0 ],
					"fontsize" : 12.0,
					"numoutlets" : 2,
					"outlettype" : [ "float", "float" ],
					"id" : "obj-24",
					"fontname" : "Arial",
					"numinlets" : 3
				}

			}
, 			{
				"box" : 				{
					"maxclass" : "ezdac~",
					"patching_rect" : [ 537.0, 614.0, 45.0, 45.0 ],
					"presentation" : 1,
					"numoutlets" : 0,
					"id" : "obj-12",
					"presentation_rect" : [ 537.0, 614.0, 45.0, 45.0 ],
					"numinlets" : 2
				}

			}
, 			{
				"box" : 				{
					"maxclass" : "flonum",
					"patching_rect" : [ 367.0, 446.0, 50.0, 20.0 ],
					"fontsize" : 12.0,
					"presentation" : 1,
					"numoutlets" : 2,
					"outlettype" : [ "float", "bang" ],
					"id" : "obj-11",
					"fontname" : "Arial",
					"presentation_rect" : [ 162.0, 542.0, 50.0, 20.0 ],
					"numinlets" : 1
				}

			}
, 			{
				"box" : 				{
					"maxclass" : "newobj",
					"text" : "scale 0. 1. 10. 5000.",
					"patching_rect" : [ 339.0, 417.0, 119.0, 20.0 ],
					"fontsize" : 12.0,
					"numoutlets" : 1,
					"outlettype" : [ "" ],
					"id" : "obj-10",
					"fontname" : "Arial",
					"numinlets" : 6
				}

			}
, 			{
				"box" : 				{
					"maxclass" : "newobj",
					"text" : "cycle~ 440",
					"patching_rect" : [ 326.0, 478.0, 68.0, 20.0 ],
					"fontsize" : 12.0,
					"numoutlets" : 1,
					"outlettype" : [ "signal" ],
					"id" : "obj-9",
					"fontname" : "Arial",
					"numinlets" : 2
				}

			}
, 			{
				"box" : 				{
					"maxclass" : "toggle",
					"patching_rect" : [ 194.0, 158.0, 20.0, 20.0 ],
					"presentation" : 1,
					"numoutlets" : 1,
					"outlettype" : [ "int" ],
					"id" : "obj-8",
					"presentation_rect" : [ 394.0, 115.0, 20.0, 20.0 ],
					"numinlets" : 1
				}

			}
, 			{
				"box" : 				{
					"maxclass" : "flonum",
					"patching_rect" : [ 323.0, 193.0, 70.0, 20.0 ],
					"fontsize" : 12.0,
					"presentation" : 1,
					"numoutlets" : 2,
					"outlettype" : [ "float", "bang" ],
					"id" : "obj-7",
					"fontname" : "Arial",
					"presentation_rect" : [ 202.0, 243.0, 70.0, 20.0 ],
					"numinlets" : 1
				}

			}
, 			{
				"box" : 				{
					"maxclass" : "newobj",
					"text" : "loadbang",
					"patching_rect" : [ 438.0, 201.0, 60.0, 20.0 ],
					"fontsize" : 12.0,
					"numoutlets" : 1,
					"outlettype" : [ "bang" ],
					"id" : "obj-6",
					"fontname" : "Arial",
					"numinlets" : 1
				}

			}
, 			{
				"box" : 				{
					"maxclass" : "message",
					"text" : "0.5",
					"patching_rect" : [ 424.0, 229.0, 32.5, 18.0 ],
					"fontsize" : 12.0,
					"numoutlets" : 1,
					"outlettype" : [ "" ],
					"id" : "obj-5",
					"fontname" : "Arial",
					"numinlets" : 2
				}

			}
, 			{
				"box" : 				{
					"maxclass" : "flonum",
					"patching_rect" : [ 349.0, 301.0, 70.0, 20.0 ],
					"fontsize" : 12.0,
					"presentation" : 1,
					"numoutlets" : 2,
					"outlettype" : [ "float", "bang" ],
					"id" : "obj-4",
					"fontname" : "Arial",
					"presentation_rect" : [ 151.0, 308.0, 70.0, 20.0 ],
					"numinlets" : 1
				}

			}
, 			{
				"box" : 				{
					"maxclass" : "slider",
					"size" : 4.0,
					"patching_rect" : [ 382.0, 47.0, 20.0, 140.0 ],
					"presentation" : 1,
					"numoutlets" : 1,
					"floatoutput" : 1,
					"outlettype" : [ "" ],
					"id" : "obj-3",
					"presentation_rect" : [ 172.0, 11.0, 20.0, 255.0 ],
					"relative" : 1,
					"numinlets" : 1
				}

			}
, 			{
				"box" : 				{
					"maxclass" : "newobj",
					"text" : "metro 400",
					"patching_rect" : [ 195.0, 223.0, 65.0, 20.0 ],
					"fontsize" : 12.0,
					"numoutlets" : 1,
					"outlettype" : [ "bang" ],
					"id" : "obj-2",
					"fontname" : "Arial",
					"numinlets" : 2
				}

			}
, 			{
				"box" : 				{
					"maxclass" : "newobj",
					"text" : "fractal_iter",
					"patching_rect" : [ 360.0, 256.0, 67.0, 20.0 ],
					"fontsize" : 12.0,
					"numoutlets" : 2,
					"outlettype" : [ "float", "float" ],
					"id" : "obj-1",
					"fontname" : "Arial",
					"numinlets" : 3
				}

			}
 ],
		"lines" : [ 			{
				"patchline" : 				{
					"source" : [ "obj-32", 0 ],
					"destination" : [ "obj-22", 0 ],
					"hidden" : 0,
					"midpoints" : [ 474.5, 71.0, 716.0, 71.0, 716.0, 25.0, 755.5, 25.0 ]
				}

			}
, 			{
				"patchline" : 				{
					"source" : [ "obj-32", 0 ],
					"destination" : [ "obj-3", 0 ],
					"hidden" : 0,
					"midpoints" : [ 474.5, 69.0, 416.0, 69.0, 408.0, 41.0, 391.5, 41.0 ]
				}

			}
, 			{
				"patchline" : 				{
					"source" : [ "obj-31", 0 ],
					"destination" : [ "obj-32", 0 ],
					"hidden" : 0,
					"midpoints" : [  ]
				}

			}
, 			{
				"patchline" : 				{
					"source" : [ "obj-30", 1 ],
					"destination" : [ "obj-15", 4 ],
					"hidden" : 0,
					"midpoints" : [ 991.5, 416.0, 794.5, 416.0 ]
				}

			}
, 			{
				"patchline" : 				{
					"source" : [ "obj-30", 0 ],
					"destination" : [ "obj-15", 3 ],
					"hidden" : 0,
					"midpoints" : [ 788.5, 402.0, 774.5, 402.0 ]
				}

			}
, 			{
				"patchline" : 				{
					"source" : [ "obj-29", 1 ],
					"destination" : [ "obj-10", 4 ],
					"hidden" : 0,
					"midpoints" : [ 609.5, 397.0, 428.5, 397.0 ]
				}

			}
, 			{
				"patchline" : 				{
					"source" : [ "obj-29", 0 ],
					"destination" : [ "obj-10", 3 ],
					"hidden" : 0,
					"midpoints" : [  ]
				}

			}
, 			{
				"patchline" : 				{
					"source" : [ "obj-2", 0 ],
					"destination" : [ "obj-1", 0 ],
					"hidden" : 0,
					"midpoints" : [ 204.5, 248.0, 369.5, 248.0 ]
				}

			}
, 			{
				"patchline" : 				{
					"source" : [ "obj-3", 0 ],
					"destination" : [ "obj-1", 1 ],
					"hidden" : 0,
					"midpoints" : [  ]
				}

			}
, 			{
				"patchline" : 				{
					"source" : [ "obj-1", 0 ],
					"destination" : [ "obj-4", 0 ],
					"hidden" : 0,
					"midpoints" : [  ]
				}

			}
, 			{
				"patchline" : 				{
					"source" : [ "obj-5", 0 ],
					"destination" : [ "obj-1", 2 ],
					"hidden" : 0,
					"midpoints" : [  ]
				}

			}
, 			{
				"patchline" : 				{
					"source" : [ "obj-6", 0 ],
					"destination" : [ "obj-5", 0 ],
					"hidden" : 0,
					"midpoints" : [  ]
				}

			}
, 			{
				"patchline" : 				{
					"source" : [ "obj-3", 0 ],
					"destination" : [ "obj-7", 0 ],
					"hidden" : 0,
					"midpoints" : [ 333.0, 187.0 ]
				}

			}
, 			{
				"patchline" : 				{
					"source" : [ "obj-8", 0 ],
					"destination" : [ "obj-2", 0 ],
					"hidden" : 0,
					"midpoints" : [  ]
				}

			}
, 			{
				"patchline" : 				{
					"source" : [ "obj-9", 0 ],
					"destination" : [ "obj-12", 0 ],
					"hidden" : 0,
					"midpoints" : [  ]
				}

			}
, 			{
				"patchline" : 				{
					"source" : [ "obj-10", 0 ],
					"destination" : [ "obj-9", 0 ],
					"hidden" : 0,
					"midpoints" : [ 348.5, 461.0, 335.5, 469.0 ]
				}

			}
, 			{
				"patchline" : 				{
					"source" : [ "obj-10", 0 ],
					"destination" : [ "obj-11", 0 ],
					"hidden" : 0,
					"midpoints" : [ 348.5, 447.0 ]
				}

			}
, 			{
				"patchline" : 				{
					"source" : [ "obj-4", 0 ],
					"destination" : [ "obj-10", 0 ],
					"hidden" : 0,
					"midpoints" : [  ]
				}

			}
, 			{
				"patchline" : 				{
					"source" : [ "obj-21", 0 ],
					"destination" : [ "obj-15", 0 ],
					"hidden" : 0,
					"midpoints" : [  ]
				}

			}
, 			{
				"patchline" : 				{
					"source" : [ "obj-15", 0 ],
					"destination" : [ "obj-14", 0 ],
					"hidden" : 0,
					"midpoints" : [ 714.5, 469.0 ]
				}

			}
, 			{
				"patchline" : 				{
					"source" : [ "obj-15", 0 ],
					"destination" : [ "obj-16", 0 ],
					"hidden" : 0,
					"midpoints" : [ 714.5, 483.0, 701.5, 491.0 ]
				}

			}
, 			{
				"patchline" : 				{
					"source" : [ "obj-17", 0 ],
					"destination" : [ "obj-23", 0 ],
					"hidden" : 0,
					"midpoints" : [  ]
				}

			}
, 			{
				"patchline" : 				{
					"source" : [ "obj-22", 0 ],
					"destination" : [ "obj-18", 0 ],
					"hidden" : 0,
					"midpoints" : [ 695.0, 175.0 ]
				}

			}
, 			{
				"patchline" : 				{
					"source" : [ "obj-19", 0 ],
					"destination" : [ "obj-20", 0 ],
					"hidden" : 0,
					"midpoints" : [  ]
				}

			}
, 			{
				"patchline" : 				{
					"source" : [ "obj-20", 0 ],
					"destination" : [ "obj-24", 2 ],
					"hidden" : 0,
					"midpoints" : [  ]
				}

			}
, 			{
				"patchline" : 				{
					"source" : [ "obj-24", 0 ],
					"destination" : [ "obj-21", 0 ],
					"hidden" : 0,
					"midpoints" : [  ]
				}

			}
, 			{
				"patchline" : 				{
					"source" : [ "obj-22", 0 ],
					"destination" : [ "obj-24", 1 ],
					"hidden" : 0,
					"midpoints" : [  ]
				}

			}
, 			{
				"patchline" : 				{
					"source" : [ "obj-23", 0 ],
					"destination" : [ "obj-24", 0 ],
					"hidden" : 0,
					"midpoints" : [ 585.5, 236.0, 731.5, 236.0 ]
				}

			}
, 			{
				"patchline" : 				{
					"source" : [ "obj-25", 0 ],
					"destination" : [ "obj-2", 1 ],
					"hidden" : 0,
					"midpoints" : [  ]
				}

			}
, 			{
				"patchline" : 				{
					"source" : [ "obj-26", 0 ],
					"destination" : [ "obj-23", 1 ],
					"hidden" : 0,
					"midpoints" : [  ]
				}

			}
, 			{
				"patchline" : 				{
					"source" : [ "obj-4", 0 ],
					"destination" : [ "obj-26", 0 ],
					"hidden" : 0,
					"midpoints" : [ 358.5, 332.0, 545.0, 332.0, 545.0, 107.0, 628.0, 107.0, 632.5, 144.0 ]
				}

			}
, 			{
				"patchline" : 				{
					"source" : [ "obj-21", 0 ],
					"destination" : [ "obj-25", 0 ],
					"hidden" : 0,
					"midpoints" : [ 720.5, 328.0, 174.0, 328.0, 174.0, 89.0, 250.5, 89.0 ]
				}

			}
, 			{
				"patchline" : 				{
					"source" : [ "obj-16", 0 ],
					"destination" : [ "obj-12", 1 ],
					"hidden" : 0,
					"midpoints" : [  ]
				}

			}
, 			{
				"patchline" : 				{
					"source" : [ "obj-27", 0 ],
					"destination" : [ "obj-8", 0 ],
					"hidden" : 0,
					"midpoints" : [ 201.0, 35.0 ]
				}

			}
, 			{
				"patchline" : 				{
					"source" : [ "obj-27", 0 ],
					"destination" : [ "obj-17", 0 ],
					"hidden" : 0,
					"midpoints" : [ 72.5, 38.0, 584.5, 38.0 ]
				}

			}
, 			{
				"patchline" : 				{
					"source" : [ "obj-27", 0 ],
					"destination" : [ "obj-12", 0 ],
					"hidden" : 0,
					"midpoints" : [ 44.5, 595.0, 518.5, 602.0 ]
				}

			}
, 			{
				"patchline" : 				{
					"source" : [ "obj-29", 0 ],
					"destination" : [ "obj-13", 0 ],
					"hidden" : 0,
					"midpoints" : [  ]
				}

			}
, 			{
				"patchline" : 				{
					"source" : [ "obj-30", 1 ],
					"destination" : [ "obj-34", 0 ],
					"hidden" : 0,
					"midpoints" : [  ]
				}

			}
, 			{
				"patchline" : 				{
					"source" : [ "obj-30", 0 ],
					"destination" : [ "obj-33", 0 ],
					"hidden" : 0,
					"midpoints" : [ 788.5, 377.0, 836.5, 377.0 ]
				}

			}
, 			{
				"patchline" : 				{
					"source" : [ "obj-29", 1 ],
					"destination" : [ "obj-28", 0 ],
					"hidden" : 0,
					"midpoints" : [  ]
				}

			}
 ]
	}

}
