{
	"patcher" : 	{
		"fileversion" : 1,
		"appversion" : 		{
			"major" : 5,
			"minor" : 1,
			"revision" : 9
		}
,
		"rect" : [ 1092.0, 142.0, 808.0, 825.0 ],
		"bglocked" : 0,
		"defrect" : [ 1092.0, 142.0, 808.0, 825.0 ],
		"openrect" : [ 0.0, 0.0, 0.0, 0.0 ],
		"openinpresentation" : 0,
		"default_fontsize" : 12.0,
		"default_fontface" : 0,
		"default_fontname" : "Arial",
		"gridonopen" : 0,
		"gridsize" : [ 15.0, 15.0 ],
		"gridsnaponopen" : 0,
		"toolbarvisible" : 1,
		"boxanimatetime" : 200,
		"imprint" : 0,
		"enablehscroll" : 1,
		"enablevscroll" : 1,
		"devicewidth" : 0.0,
		"boxes" : [ 			{
				"box" : 				{
					"maxclass" : "inlet",
					"hint" : "Voice Speed short is faster ",
					"annotation" : "Voice Speed short is faster ",
					"numinlets" : 0,
					"patching_rect" : [ 300.0, 61.0, 25.0, 25.0 ],
					"numoutlets" : 1,
					"id" : "obj-28",
					"outlettype" : [ "" ],
					"comment" : ""
				}

			}
, 			{
				"box" : 				{
					"maxclass" : "ezdac~",
					"numinlets" : 2,
					"patching_rect" : [ 109.0, 652.0, 45.0, 45.0 ],
					"numoutlets" : 0,
					"id" : "obj-27"
				}

			}
, 			{
				"box" : 				{
					"maxclass" : "flonum",
					"numinlets" : 1,
					"patching_rect" : [ 193.0, 240.0, 50.0, 20.0 ],
					"fontname" : "Arial",
					"numoutlets" : 2,
					"id" : "obj-26",
					"outlettype" : [ "float", "bang" ],
					"fontsize" : 12.0
				}

			}
, 			{
				"box" : 				{
					"maxclass" : "newobj",
					"text" : "* 1.",
					"numinlets" : 2,
					"patching_rect" : [ 123.0, 366.0, 32.5, 20.0 ],
					"fontname" : "Arial",
					"numoutlets" : 1,
					"id" : "obj-25",
					"outlettype" : [ "float" ],
					"fontsize" : 12.0
				}

			}
, 			{
				"box" : 				{
					"maxclass" : "gswitch",
					"numinlets" : 3,
					"patching_rect" : [ 171.0, 441.0, 41.0, 32.0 ],
					"numoutlets" : 1,
					"id" : "obj-24",
					"outlettype" : [ "" ]
				}

			}
, 			{
				"box" : 				{
					"maxclass" : "gswitch",
					"numinlets" : 3,
					"patching_rect" : [ 283.0, 443.0, 41.0, 32.0 ],
					"numoutlets" : 1,
					"id" : "obj-23",
					"outlettype" : [ "" ]
				}

			}
, 			{
				"box" : 				{
					"maxclass" : "gswitch",
					"numinlets" : 3,
					"patching_rect" : [ 90.0, 445.0, 41.0, 32.0 ],
					"numoutlets" : 1,
					"id" : "obj-22",
					"outlettype" : [ "" ]
				}

			}
, 			{
				"box" : 				{
					"maxclass" : "inlet",
					"hint" : "word to say",
					"annotation" : "word to say",
					"numinlets" : 0,
					"patching_rect" : [ 45.0, 59.0, 25.0, 25.0 ],
					"numoutlets" : 1,
					"id" : "obj-21",
					"outlettype" : [ "" ],
					"comment" : ""
				}

			}
, 			{
				"box" : 				{
					"maxclass" : "outlet",
					"numinlets" : 1,
					"patching_rect" : [ 170.0, 736.0, 25.0, 25.0 ],
					"numoutlets" : 0,
					"id" : "obj-20",
					"comment" : ""
				}

			}
, 			{
				"box" : 				{
					"maxclass" : "button",
					"numinlets" : 1,
					"patching_rect" : [ 166.0, 554.0, 20.0, 20.0 ],
					"numoutlets" : 1,
					"id" : "obj-19",
					"outlettype" : [ "bang" ]
				}

			}
, 			{
				"box" : 				{
					"maxclass" : "outlet",
					"numinlets" : 1,
					"patching_rect" : [ 50.0, 736.0, 25.0, 25.0 ],
					"numoutlets" : 0,
					"id" : "obj-18",
					"comment" : ""
				}

			}
, 			{
				"box" : 				{
					"maxclass" : "newobj",
					"text" : "print playing",
					"numinlets" : 1,
					"patching_rect" : [ 103.0, 486.0, 75.0, 20.0 ],
					"fontname" : "Arial",
					"numoutlets" : 0,
					"id" : "obj-17",
					"fontsize" : 12.0
				}

			}
, 			{
				"box" : 				{
					"maxclass" : "newobj",
					"text" : "pack 0 0",
					"numinlets" : 2,
					"patching_rect" : [ 57.0, 388.0, 56.0, 20.0 ],
					"fontname" : "Arial",
					"numoutlets" : 1,
					"id" : "obj-16",
					"outlettype" : [ "" ],
					"fontsize" : 12.0
				}

			}
, 			{
				"box" : 				{
					"maxclass" : "newobj",
					"text" : "- 500",
					"numinlets" : 2,
					"patching_rect" : [ 88.0, 343.0, 38.0, 20.0 ],
					"fontname" : "Arial",
					"numoutlets" : 1,
					"id" : "obj-14",
					"outlettype" : [ "int" ],
					"fontsize" : 12.0
				}

			}
, 			{
				"box" : 				{
					"maxclass" : "newobj",
					"text" : "- 250",
					"numinlets" : 2,
					"patching_rect" : [ 15.0, 366.0, 38.0, 20.0 ],
					"fontname" : "Arial",
					"numoutlets" : 1,
					"id" : "obj-13",
					"outlettype" : [ "int" ],
					"fontsize" : 12.0
				}

			}
, 			{
				"box" : 				{
					"maxclass" : "newobj",
					"text" : "play~ fliteBuf",
					"numinlets" : 1,
					"patching_rect" : [ 55.0, 598.0, 80.0, 20.0 ],
					"fontname" : "Arial",
					"numoutlets" : 1,
					"id" : "obj-11",
					"outlettype" : [ "signal" ],
					"fontsize" : 12.0
				}

			}
, 			{
				"box" : 				{
					"maxclass" : "newobj",
					"text" : "line~",
					"numinlets" : 2,
					"patching_rect" : [ 51.0, 477.0, 36.0, 20.0 ],
					"fontname" : "Arial",
					"numoutlets" : 2,
					"id" : "obj-10",
					"outlettype" : [ "signal", "bang" ],
					"fontsize" : 12.0
				}

			}
, 			{
				"box" : 				{
					"maxclass" : "message",
					"text" : "250, $1 $2",
					"numinlets" : 2,
					"patching_rect" : [ 52.0, 417.0, 67.0, 18.0 ],
					"fontname" : "Arial",
					"numoutlets" : 1,
					"id" : "obj-9",
					"outlettype" : [ "" ],
					"fontsize" : 12.0
				}

			}
, 			{
				"box" : 				{
					"maxclass" : "message",
					"text" : "looooooooong",
					"numinlets" : 2,
					"patching_rect" : [ 180.0, 88.0, 87.0, 18.0 ],
					"fontname" : "Arial",
					"numoutlets" : 1,
					"id" : "obj-8",
					"outlettype" : [ "" ],
					"fontsize" : 12.0
				}

			}
, 			{
				"box" : 				{
					"maxclass" : "message",
					"text" : "\"short word here\"",
					"numinlets" : 2,
					"patching_rect" : [ 108.0, 51.0, 102.0, 18.0 ],
					"fontname" : "Arial",
					"numoutlets" : 1,
					"id" : "obj-7",
					"outlettype" : [ "" ],
					"fontsize" : 12.0
				}

			}
, 			{
				"box" : 				{
					"maxclass" : "message",
					"text" : "synth",
					"numinlets" : 2,
					"patching_rect" : [ 51.0, 181.0, 39.0, 18.0 ],
					"fontname" : "Arial",
					"numoutlets" : 1,
					"id" : "obj-6",
					"outlettype" : [ "" ],
					"fontsize" : 12.0
				}

			}
, 			{
				"box" : 				{
					"maxclass" : "newobj",
					"text" : "print fliteout2",
					"numinlets" : 1,
					"patching_rect" : [ 284.0, 482.0, 79.0, 20.0 ],
					"fontname" : "Arial",
					"numoutlets" : 0,
					"id" : "obj-5",
					"fontsize" : 12.0
				}

			}
, 			{
				"box" : 				{
					"maxclass" : "newobj",
					"text" : "print fliteout1",
					"numinlets" : 1,
					"patching_rect" : [ 182.0, 480.0, 79.0, 20.0 ],
					"fontname" : "Arial",
					"numoutlets" : 0,
					"id" : "obj-4",
					"fontsize" : 12.0
				}

			}
, 			{
				"box" : 				{
					"maxclass" : "message",
					"text" : "speak $1",
					"numinlets" : 2,
					"patching_rect" : [ 106.0, 122.0, 59.0, 18.0 ],
					"fontname" : "Arial",
					"numoutlets" : 1,
					"id" : "obj-3",
					"outlettype" : [ "" ],
					"fontsize" : 12.0
				}

			}
, 			{
				"box" : 				{
					"maxclass" : "newobj",
					"text" : "buffer~ fliteBuf 2000",
					"numinlets" : 1,
					"patching_rect" : [ 305.0, 245.0, 118.0, 20.0 ],
					"fontname" : "Arial",
					"numoutlets" : 2,
					"id" : "obj-2",
					"outlettype" : [ "float", "bang" ],
					"fontsize" : 12.0
				}

			}
, 			{
				"box" : 				{
					"maxclass" : "newobj",
					"text" : "flite~ fliteBuf",
					"numinlets" : 1,
					"patching_rect" : [ 50.0, 304.0, 76.0, 20.0 ],
					"fontname" : "Arial",
					"numoutlets" : 2,
					"id" : "obj-1",
					"outlettype" : [ "int", "bang" ],
					"fontsize" : 12.0
				}

			}
 ],
		"lines" : [ 			{
				"patchline" : 				{
					"source" : [ "obj-28", 0 ],
					"destination" : [ "obj-26", 0 ],
					"hidden" : 0,
					"midpoints" : [  ]
				}

			}
, 			{
				"patchline" : 				{
					"source" : [ "obj-26", 0 ],
					"destination" : [ "obj-25", 1 ],
					"hidden" : 0,
					"midpoints" : [  ]
				}

			}
, 			{
				"patchline" : 				{
					"source" : [ "obj-25", 0 ],
					"destination" : [ "obj-16", 1 ],
					"hidden" : 0,
					"midpoints" : [  ]
				}

			}
, 			{
				"patchline" : 				{
					"source" : [ "obj-14", 0 ],
					"destination" : [ "obj-25", 0 ],
					"hidden" : 0,
					"midpoints" : [  ]
				}

			}
, 			{
				"patchline" : 				{
					"source" : [ "obj-1", 0 ],
					"destination" : [ "obj-24", 2 ],
					"hidden" : 0,
					"midpoints" : [ 59.5, 338.5, 202.5, 338.5 ]
				}

			}
, 			{
				"patchline" : 				{
					"source" : [ "obj-24", 0 ],
					"destination" : [ "obj-4", 0 ],
					"hidden" : 0,
					"midpoints" : [ 180.5, 477.5, 191.5, 477.5 ]
				}

			}
, 			{
				"patchline" : 				{
					"source" : [ "obj-23", 0 ],
					"destination" : [ "obj-5", 0 ],
					"hidden" : 0,
					"midpoints" : [  ]
				}

			}
, 			{
				"patchline" : 				{
					"source" : [ "obj-1", 1 ],
					"destination" : [ "obj-23", 2 ],
					"hidden" : 0,
					"midpoints" : [ 116.5, 335.5, 314.5, 335.5 ]
				}

			}
, 			{
				"patchline" : 				{
					"source" : [ "obj-22", 0 ],
					"destination" : [ "obj-17", 0 ],
					"hidden" : 0,
					"midpoints" : [  ]
				}

			}
, 			{
				"patchline" : 				{
					"source" : [ "obj-9", 0 ],
					"destination" : [ "obj-22", 2 ],
					"hidden" : 0,
					"midpoints" : [  ]
				}

			}
, 			{
				"patchline" : 				{
					"source" : [ "obj-21", 0 ],
					"destination" : [ "obj-3", 0 ],
					"hidden" : 0,
					"midpoints" : [  ]
				}

			}
, 			{
				"patchline" : 				{
					"source" : [ "obj-19", 0 ],
					"destination" : [ "obj-20", 0 ],
					"hidden" : 0,
					"midpoints" : [  ]
				}

			}
, 			{
				"patchline" : 				{
					"source" : [ "obj-10", 1 ],
					"destination" : [ "obj-19", 0 ],
					"hidden" : 0,
					"midpoints" : [  ]
				}

			}
, 			{
				"patchline" : 				{
					"source" : [ "obj-11", 0 ],
					"destination" : [ "obj-18", 0 ],
					"hidden" : 0,
					"midpoints" : [  ]
				}

			}
, 			{
				"patchline" : 				{
					"source" : [ "obj-1", 0 ],
					"destination" : [ "obj-14", 0 ],
					"hidden" : 0,
					"midpoints" : [ 59.5, 346.0, 97.5, 346.0 ]
				}

			}
, 			{
				"patchline" : 				{
					"source" : [ "obj-16", 0 ],
					"destination" : [ "obj-9", 0 ],
					"hidden" : 0,
					"midpoints" : [  ]
				}

			}
, 			{
				"patchline" : 				{
					"source" : [ "obj-13", 0 ],
					"destination" : [ "obj-16", 0 ],
					"hidden" : 0,
					"midpoints" : [  ]
				}

			}
, 			{
				"patchline" : 				{
					"source" : [ "obj-1", 0 ],
					"destination" : [ "obj-13", 0 ],
					"hidden" : 0,
					"midpoints" : [ 59.5, 344.5, 24.5, 344.5 ]
				}

			}
, 			{
				"patchline" : 				{
					"source" : [ "obj-10", 0 ],
					"destination" : [ "obj-11", 0 ],
					"hidden" : 0,
					"midpoints" : [  ]
				}

			}
, 			{
				"patchline" : 				{
					"source" : [ "obj-9", 0 ],
					"destination" : [ "obj-10", 0 ],
					"hidden" : 0,
					"midpoints" : [  ]
				}

			}
, 			{
				"patchline" : 				{
					"source" : [ "obj-8", 0 ],
					"destination" : [ "obj-3", 0 ],
					"hidden" : 0,
					"midpoints" : [  ]
				}

			}
, 			{
				"patchline" : 				{
					"source" : [ "obj-7", 0 ],
					"destination" : [ "obj-3", 0 ],
					"hidden" : 0,
					"midpoints" : [  ]
				}

			}
, 			{
				"patchline" : 				{
					"source" : [ "obj-3", 0 ],
					"destination" : [ "obj-6", 0 ],
					"hidden" : 0,
					"midpoints" : [ 115.5, 160.0, 60.5, 160.0 ]
				}

			}
, 			{
				"patchline" : 				{
					"source" : [ "obj-6", 0 ],
					"destination" : [ "obj-1", 0 ],
					"hidden" : 0,
					"midpoints" : [ 60.5, 251.0, 59.5, 251.0 ]
				}

			}
, 			{
				"patchline" : 				{
					"source" : [ "obj-3", 0 ],
					"destination" : [ "obj-1", 0 ],
					"hidden" : 0,
					"midpoints" : [ 115.5, 221.5, 59.5, 221.5 ]
				}

			}
 ]
	}

}
