{
	"patcher" : 	{
		"fileversion" : 1,
		"rect" : [ 85.0, 203.0, 640.0, 469.0 ],
		"bglocked" : 0,
		"defrect" : [ 85.0, 203.0, 640.0, 469.0 ],
		"openrect" : [ 0.0, 0.0, 0.0, 0.0 ],
		"openinpresentation" : 1,
		"default_fontsize" : 12.0,
		"default_fontface" : 0,
		"default_fontname" : "Arial",
		"gridonopen" : 0,
		"gridsize" : [ 20.0, 20.0 ],
		"gridsnaponopen" : 0,
		"toolbarvisible" : 1,
		"boxanimatetime" : 200,
		"imprint" : 0,
		"metadata" : [  ],
		"boxes" : [ 			{
				"box" : 				{
					"maxclass" : "outlet",
					"id" : "obj-10",
					"patching_rect" : [ 280.0, 160.0, 25.0, 25.0 ],
					"numinlets" : 1,
					"numoutlets" : 0,
					"comment" : ""
				}

			}
, 			{
				"box" : 				{
					"maxclass" : "inlet",
					"outlettype" : [ "" ],
					"id" : "obj-9",
					"patching_rect" : [ 280.0, 0.0, 25.0, 25.0 ],
					"numinlets" : 0,
					"numoutlets" : 1,
					"comment" : ""
				}

			}
, 			{
				"box" : 				{
					"maxclass" : "inlet",
					"outlettype" : [ "" ],
					"id" : "obj-8",
					"patching_rect" : [ 200.0, 0.0, 25.0, 25.0 ],
					"numinlets" : 0,
					"numoutlets" : 1,
					"comment" : ""
				}

			}
, 			{
				"box" : 				{
					"maxclass" : "toggle",
					"outlettype" : [ "int" ],
					"id" : "obj-7",
					"presentation_rect" : [ 60.0, 0.0, 59.0, 59.0 ],
					"patching_rect" : [ 280.0, 60.0, 20.0, 20.0 ],
					"presentation" : 1,
					"numinlets" : 1,
					"numoutlets" : 1
				}

			}
, 			{
				"box" : 				{
					"maxclass" : "dial",
					"outlettype" : [ "float" ],
					"id" : "obj-6",
					"presentation_rect" : [ 0.0, 0.0, 59.0, 59.0 ],
					"patching_rect" : [ 200.0, 40.0, 40.0, 40.0 ],
					"presentation" : 1,
					"numinlets" : 1,
					"numoutlets" : 1
				}

			}
, 			{
				"box" : 				{
					"maxclass" : "flonum",
					"outlettype" : [ "float", "bang" ],
					"id" : "obj-5",
					"presentation_rect" : [ 60.0, 80.0, 50.0, 20.0 ],
					"fontsize" : 12.0,
					"patching_rect" : [ 280.0, 100.0, 50.0, 20.0 ],
					"presentation" : 1,
					"numinlets" : 1,
					"numoutlets" : 2,
					"fontname" : "Arial"
				}

			}
, 			{
				"box" : 				{
					"maxclass" : "flonum",
					"outlettype" : [ "float", "bang" ],
					"id" : "obj-4",
					"presentation_rect" : [ 60.0, 60.0, 50.0, 20.0 ],
					"fontsize" : 12.0,
					"patching_rect" : [ 240.0, 100.0, 50.0, 20.0 ],
					"presentation" : 1,
					"numinlets" : 1,
					"numoutlets" : 2,
					"fontname" : "Arial"
				}

			}
, 			{
				"box" : 				{
					"maxclass" : "flonum",
					"outlettype" : [ "float", "bang" ],
					"id" : "obj-3",
					"presentation_rect" : [ 0.0, 80.0, 50.0, 20.0 ],
					"fontsize" : 12.0,
					"patching_rect" : [ 200.0, 100.0, 50.0, 20.0 ],
					"presentation" : 1,
					"numinlets" : 1,
					"numoutlets" : 2,
					"fontname" : "Arial"
				}

			}
, 			{
				"box" : 				{
					"maxclass" : "flonum",
					"outlettype" : [ "float", "bang" ],
					"id" : "obj-2",
					"presentation_rect" : [ 0.0, 60.0, 50.0, 20.0 ],
					"fontsize" : 12.0,
					"patching_rect" : [ 160.0, 100.0, 50.0, 20.0 ],
					"presentation" : 1,
					"numinlets" : 1,
					"numoutlets" : 2,
					"fontname" : "Arial"
				}

			}
, 			{
				"box" : 				{
					"maxclass" : "newobj",
					"text" : "midi_control_catch u u",
					"outlettype" : [ "int", "int", "int", "int" ],
					"id" : "obj-1",
					"fontsize" : 12.0,
					"patching_rect" : [ 200.0, 80.0, 131.0, 20.0 ],
					"numinlets" : 2,
					"numoutlets" : 4,
					"fontname" : "Arial"
				}

			}
 ],
		"lines" : [ 			{
				"patchline" : 				{
					"source" : [ "obj-6", 0 ],
					"destination" : [ "obj-1", 0 ],
					"hidden" : 0,
					"midpoints" : [  ]
				}

			}
, 			{
				"patchline" : 				{
					"source" : [ "obj-7", 0 ],
					"destination" : [ "obj-1", 1 ],
					"hidden" : 0,
					"midpoints" : [ 303.0, 78.0 ]
				}

			}
, 			{
				"patchline" : 				{
					"source" : [ "obj-1", 3 ],
					"destination" : [ "obj-5", 0 ],
					"hidden" : 0,
					"midpoints" : [  ]
				}

			}
, 			{
				"patchline" : 				{
					"source" : [ "obj-1", 2 ],
					"destination" : [ "obj-4", 0 ],
					"hidden" : 0,
					"midpoints" : [  ]
				}

			}
, 			{
				"patchline" : 				{
					"source" : [ "obj-1", 1 ],
					"destination" : [ "obj-3", 0 ],
					"hidden" : 0,
					"midpoints" : [  ]
				}

			}
, 			{
				"patchline" : 				{
					"source" : [ "obj-1", 0 ],
					"destination" : [ "obj-2", 0 ],
					"hidden" : 0,
					"midpoints" : [  ]
				}

			}
, 			{
				"patchline" : 				{
					"source" : [ "obj-8", 0 ],
					"destination" : [ "obj-6", 0 ],
					"hidden" : 0,
					"midpoints" : [  ]
				}

			}
, 			{
				"patchline" : 				{
					"source" : [ "obj-9", 0 ],
					"destination" : [ "obj-7", 0 ],
					"hidden" : 0,
					"midpoints" : [  ]
				}

			}
, 			{
				"patchline" : 				{
					"source" : [ "obj-5", 0 ],
					"destination" : [ "obj-10", 0 ],
					"hidden" : 0,
					"midpoints" : [  ]
				}

			}
, 			{
				"patchline" : 				{
					"source" : [ "obj-5", 0 ],
					"destination" : [ "obj-6", 0 ],
					"hidden" : 0,
					"midpoints" : [ 282.0, 135.0, 112.0, 143.0, 125.0, 28.0, 209.5, 28.0 ]
				}

			}
 ]
	}

}
