{
	"patcher" : 	{
		"fileversion" : 1,
		"appversion" : 		{
			"major" : 5,
			"minor" : 1,
			"revision" : 9
		}
,
		"rect" : [ 8.0, 50.0, 1920.0, 1102.0 ],
		"bglocked" : 0,
		"defrect" : [ 8.0, 50.0, 1920.0, 1102.0 ],
		"openrect" : [ 0.0, 0.0, 0.0, 0.0 ],
		"openinpresentation" : 0,
		"default_fontsize" : 12.0,
		"default_fontface" : 0,
		"default_fontname" : "Arial",
		"gridonopen" : 0,
		"gridsize" : [ 15.0, 15.0 ],
		"gridsnaponopen" : 0,
		"toolbarvisible" : 1,
		"boxanimatetime" : 200,
		"imprint" : 0,
		"enablehscroll" : 1,
		"enablevscroll" : 1,
		"devicewidth" : 0.0,
		"boxes" : [ 			{
				"box" : 				{
					"maxclass" : "gswitch",
					"patching_rect" : [ 402.0, 1034.0, 41.0, 32.0 ],
					"numinlets" : 3,
					"id" : "obj-45",
					"numoutlets" : 1,
					"outlettype" : [ "" ]
				}

			}
, 			{
				"box" : 				{
					"maxclass" : "message",
					"text" : "0",
					"fontsize" : 12.0,
					"patching_rect" : [ 547.0, 1036.0, 32.5, 18.0 ],
					"numinlets" : 2,
					"fontname" : "Arial",
					"id" : "obj-44",
					"numoutlets" : 1,
					"outlettype" : [ "" ]
				}

			}
, 			{
				"box" : 				{
					"maxclass" : "button",
					"patching_rect" : [ 517.0, 1049.0, 20.0, 20.0 ],
					"numinlets" : 1,
					"id" : "obj-43",
					"numoutlets" : 1,
					"outlettype" : [ "bang" ]
				}

			}
, 			{
				"box" : 				{
					"maxclass" : "newobj",
					"text" : "counter 0 0",
					"fontsize" : 12.0,
					"patching_rect" : [ 518.0, 1099.0, 73.0, 20.0 ],
					"numinlets" : 5,
					"fontname" : "Arial",
					"id" : "obj-42",
					"numoutlets" : 4,
					"outlettype" : [ "int", "", "", "int" ]
				}

			}
, 			{
				"box" : 				{
					"maxclass" : "newobj",
					"text" : "print 5",
					"fontsize" : 12.0,
					"patching_rect" : [ 227.0, 802.0, 44.0, 20.0 ],
					"numinlets" : 1,
					"fontname" : "Arial",
					"id" : "obj-41",
					"numoutlets" : 0
				}

			}
, 			{
				"box" : 				{
					"maxclass" : "newobj",
					"text" : "print 4",
					"fontsize" : 12.0,
					"patching_rect" : [ 178.0, 746.0, 44.0, 20.0 ],
					"numinlets" : 1,
					"fontname" : "Arial",
					"id" : "obj-40",
					"numoutlets" : 0
				}

			}
, 			{
				"box" : 				{
					"maxclass" : "newobj",
					"text" : "print 3",
					"fontsize" : 12.0,
					"patching_rect" : [ 162.0, 201.0, 44.0, 20.0 ],
					"numinlets" : 1,
					"fontname" : "Arial",
					"id" : "obj-39",
					"numoutlets" : 0
				}

			}
, 			{
				"box" : 				{
					"maxclass" : "newobj",
					"text" : "print 2",
					"fontsize" : 12.0,
					"patching_rect" : [ 426.0, 175.0, 44.0, 20.0 ],
					"numinlets" : 1,
					"fontname" : "Arial",
					"id" : "obj-38",
					"numoutlets" : 0
				}

			}
, 			{
				"box" : 				{
					"maxclass" : "newobj",
					"text" : "print 1",
					"fontsize" : 12.0,
					"patching_rect" : [ 49.0, 149.0, 44.0, 20.0 ],
					"numinlets" : 1,
					"fontname" : "Arial",
					"id" : "obj-37",
					"numoutlets" : 0
				}

			}
, 			{
				"box" : 				{
					"maxclass" : "newobj",
					"text" : "print ggg2",
					"fontsize" : 12.0,
					"patching_rect" : [ 64.0, 680.0, 64.0, 20.0 ],
					"numinlets" : 1,
					"fontname" : "Arial",
					"id" : "obj-25",
					"numoutlets" : 0
				}

			}
, 			{
				"box" : 				{
					"maxclass" : "newobj",
					"text" : "print ggg1",
					"fontsize" : 12.0,
					"patching_rect" : [ 66.0, 193.0, 64.0, 20.0 ],
					"numinlets" : 1,
					"fontname" : "Arial",
					"id" : "obj-19",
					"numoutlets" : 0
				}

			}
, 			{
				"box" : 				{
					"maxclass" : "newobj",
					"text" : "print talk5",
					"fontsize" : 12.0,
					"patching_rect" : [ 364.0, 1260.0, 63.0, 20.0 ],
					"numinlets" : 1,
					"fontname" : "Arial",
					"id" : "obj-36",
					"numoutlets" : 0
				}

			}
, 			{
				"box" : 				{
					"maxclass" : "newobj",
					"text" : "print talk4",
					"fontsize" : 12.0,
					"patching_rect" : [ 286.0, 1241.0, 63.0, 20.0 ],
					"numinlets" : 1,
					"fontname" : "Arial",
					"id" : "obj-35",
					"numoutlets" : 0
				}

			}
, 			{
				"box" : 				{
					"maxclass" : "newobj",
					"text" : "print talk3",
					"fontsize" : 12.0,
					"patching_rect" : [ 211.0, 1267.0, 63.0, 20.0 ],
					"numinlets" : 1,
					"fontname" : "Arial",
					"id" : "obj-33",
					"numoutlets" : 0
				}

			}
, 			{
				"box" : 				{
					"maxclass" : "ezdac~",
					"patching_rect" : [ 44.0, 1257.0, 45.0, 45.0 ],
					"numinlets" : 2,
					"id" : "obj-7",
					"numoutlets" : 0
				}

			}
, 			{
				"box" : 				{
					"maxclass" : "number",
					"fontsize" : 12.0,
					"patching_rect" : [ 302.0, 1111.0, 79.0, 20.0 ],
					"numinlets" : 1,
					"fontname" : "Arial",
					"id" : "obj-3",
					"numoutlets" : 2,
					"outlettype" : [ "int", "bang" ]
				}

			}
, 			{
				"box" : 				{
					"maxclass" : "newobj",
					"text" : "unpack 0 0 0 0 0",
					"fontsize" : 12.0,
					"patching_rect" : [ 18.0, 984.0, 99.0, 20.0 ],
					"numinlets" : 1,
					"fontname" : "Arial",
					"id" : "obj-1",
					"numoutlets" : 5,
					"outlettype" : [ "int", "int", "int", "int", "int" ]
				}

			}
, 			{
				"box" : 				{
					"maxclass" : "newobj",
					"text" : "fromsymbol",
					"fontsize" : 12.0,
					"patching_rect" : [ 314.0, 999.0, 73.0, 20.0 ],
					"numinlets" : 1,
					"fontname" : "Arial",
					"id" : "obj-26",
					"numoutlets" : 1,
					"outlettype" : [ "" ]
				}

			}
, 			{
				"box" : 				{
					"maxclass" : "button",
					"patching_rect" : [ 61.0, 860.0, 20.0, 20.0 ],
					"numinlets" : 1,
					"id" : "obj-18",
					"numoutlets" : 1,
					"outlettype" : [ "bang" ]
				}

			}
, 			{
				"box" : 				{
					"maxclass" : "newobj",
					"text" : "pack parseText message",
					"fontsize" : 12.0,
					"patching_rect" : [ 161.0, 881.0, 143.0, 20.0 ],
					"numinlets" : 2,
					"fontname" : "Arial",
					"id" : "obj-11",
					"numoutlets" : 1,
					"outlettype" : [ "" ]
				}

			}
, 			{
				"box" : 				{
					"maxclass" : "newobj",
					"text" : "print parseTweet2",
					"fontsize" : 12.0,
					"patching_rect" : [ 182.0, 993.0, 106.0, 20.0 ],
					"numinlets" : 1,
					"fontname" : "Arial",
					"id" : "obj-9",
					"numoutlets" : 0
				}

			}
, 			{
				"box" : 				{
					"maxclass" : "newobj",
					"text" : "print parseTweet1",
					"fontsize" : 12.0,
					"patching_rect" : [ 27.0, 940.0, 106.0, 20.0 ],
					"numinlets" : 1,
					"fontname" : "Arial",
					"id" : "obj-8",
					"numoutlets" : 0
				}

			}
, 			{
				"box" : 				{
					"maxclass" : "newobj",
					"text" : "js parseTweet",
					"fontsize" : 12.0,
					"patching_rect" : [ 183.0, 911.0, 228.0, 20.0 ],
					"numinlets" : 1,
					"fontname" : "Arial",
					"id" : "obj-6",
					"numoutlets" : 6,
					"outlettype" : [ "", "", "", "", "", "" ]
				}

			}
, 			{
				"box" : 				{
					"maxclass" : "bpatcher",
					"name" : "talkingTool.maxpat",
					"patching_rect" : [ 68.0, 1148.0, 312.0, 71.0 ],
					"args" : [  ],
					"numinlets" : 2,
					"id" : "obj-5",
					"numoutlets" : 5,
					"outlettype" : [ "", "", "", "", "int" ]
				}

			}
, 			{
				"box" : 				{
					"maxclass" : "newobj",
					"text" : "print tweetInfo",
					"fontsize" : 12.0,
					"patching_rect" : [ 395.0, 361.0, 86.0, 20.0 ],
					"numinlets" : 1,
					"fontname" : "Arial",
					"id" : "obj-2",
					"numoutlets" : 0
				}

			}
, 			{
				"box" : 				{
					"maxclass" : "comment",
					"text" : "Examples:",
					"fontsize" : 12.0,
					"patching_rect" : [ 312.0, 142.0, 84.0, 20.0 ],
					"numinlets" : 1,
					"fontname" : "Arial",
					"id" : "obj-34",
					"numoutlets" : 0
				}

			}
, 			{
				"box" : 				{
					"maxclass" : "comment",
					"text" : "username",
					"fontface" : 1,
					"fontsize" : 12.0,
					"patching_rect" : [ 395.0, 700.0, 68.0, 20.0 ],
					"numinlets" : 1,
					"fontname" : "Arial",
					"id" : "obj-21",
					"numoutlets" : 0
				}

			}
, 			{
				"box" : 				{
					"maxclass" : "message",
					"text" : "search music 3",
					"fontsize" : 12.0,
					"patching_rect" : [ 311.0, 167.0, 91.0, 18.0 ],
					"numinlets" : 2,
					"fontname" : "Arial",
					"id" : "obj-32",
					"numoutlets" : 1,
					"outlettype" : [ "" ]
				}

			}
, 			{
				"box" : 				{
					"maxclass" : "message",
					"text" : "search @cnn 1",
					"fontsize" : 12.0,
					"patching_rect" : [ 311.0, 196.0, 91.0, 18.0 ],
					"numinlets" : 2,
					"fontname" : "Arial",
					"id" : "obj-31",
					"numoutlets" : 1,
					"outlettype" : [ "" ]
				}

			}
, 			{
				"box" : 				{
					"maxclass" : "comment",
					"text" : "Usage:\n\"search keyword maximumnumberofresults\" ",
					"linecount" : 3,
					"fontsize" : 12.0,
					"patching_rect" : [ 61.0, 227.0, 160.0, 48.0 ],
					"numinlets" : 1,
					"fontname" : "Arial",
					"id" : "obj-30",
					"numoutlets" : 0
				}

			}
, 			{
				"box" : 				{
					"maxclass" : "comment",
					"text" : "Result\n\n(Only the last output shown)",
					"linecount" : 6,
					"fontsize" : 12.0,
					"patching_rect" : [ 269.0, 693.0, 53.0, 89.0 ],
					"numinlets" : 1,
					"fontname" : "Arial",
					"id" : "obj-29",
					"numoutlets" : 0
				}

			}
, 			{
				"box" : 				{
					"maxclass" : "comment",
					"text" : "Bang to search again",
					"linecount" : 3,
					"fontsize" : 12.0,
					"patching_rect" : [ 177.0, 143.0, 53.0, 48.0 ],
					"numinlets" : 1,
					"fontname" : "Arial",
					"id" : "obj-27",
					"numoutlets" : 0
				}

			}
, 			{
				"box" : 				{
					"maxclass" : "comment",
					"text" : "Enter search keyword or hashtag",
					"fontsize" : 12.0,
					"patching_rect" : [ 243.0, 88.0, 193.0, 20.0 ],
					"numinlets" : 1,
					"fontname" : "Arial",
					"id" : "obj-24",
					"numoutlets" : 0
				}

			}
, 			{
				"box" : 				{
					"maxclass" : "comment",
					"text" : "date & time",
					"fontface" : 1,
					"fontsize" : 12.0,
					"patching_rect" : [ 396.0, 794.0, 75.0, 20.0 ],
					"numinlets" : 1,
					"fontname" : "Arial",
					"id" : "obj-23",
					"numoutlets" : 0
				}

			}
, 			{
				"box" : 				{
					"maxclass" : "comment",
					"text" : "text",
					"fontface" : 1,
					"fontsize" : 12.0,
					"patching_rect" : [ 395.0, 726.0, 69.0, 20.0 ],
					"numinlets" : 1,
					"fontname" : "Arial",
					"id" : "obj-22",
					"numoutlets" : 0
				}

			}
, 			{
				"box" : 				{
					"maxclass" : "newobj",
					"text" : "route text",
					"fontsize" : 12.0,
					"patching_rect" : [ 229.0, 140.0, 61.0, 20.0 ],
					"numinlets" : 1,
					"fontname" : "Arial",
					"id" : "obj-20",
					"numoutlets" : 2,
					"outlettype" : [ "", "" ]
				}

			}
, 			{
				"box" : 				{
					"maxclass" : "button",
					"patching_rect" : [ 177.0, 103.0, 36.0, 36.0 ],
					"numinlets" : 1,
					"id" : "obj-17",
					"numoutlets" : 1,
					"outlettype" : [ "bang" ]
				}

			}
, 			{
				"box" : 				{
					"maxclass" : "message",
					"text" : "\"Mon Nov 12 18:47:55 EST 2012\"",
					"fontsize" : 12.0,
					"patching_rect" : [ 474.0, 794.0, 239.0, 18.0 ],
					"numinlets" : 2,
					"fontname" : "Arial",
					"id" : "obj-16",
					"numoutlets" : 1,
					"bgcolor" : [ 0.34902, 0.882353, 0.909804, 1.0 ],
					"outlettype" : [ "" ]
				}

			}
, 			{
				"box" : 				{
					"maxclass" : "message",
					"text" : "LearningTimes",
					"fontsize" : 12.0,
					"patching_rect" : [ 474.0, 701.0, 239.0, 18.0 ],
					"numinlets" : 2,
					"fontname" : "Arial",
					"id" : "obj-15",
					"numoutlets" : 1,
					"bgcolor" : [ 0.34902, 0.882353, 0.909804, 1.0 ],
					"outlettype" : [ "" ]
				}

			}
, 			{
				"box" : 				{
					"maxclass" : "message",
					"text" : "\"RT @erodley: Here's my slide deck from #mcn2012tale. Blogpost/Storify to come. Brain still hurts. So full of #mcn2012 goodness!\"",
					"linecount" : 4,
					"fontsize" : 12.0,
					"patching_rect" : [ 477.0, 729.0, 242.0, 60.0 ],
					"numinlets" : 2,
					"fontname" : "Arial",
					"id" : "obj-14",
					"numoutlets" : 1,
					"bgcolor" : [ 0.34902, 0.882353, 0.909804, 1.0 ],
					"outlettype" : [ "" ]
				}

			}
, 			{
				"box" : 				{
					"maxclass" : "message",
					"text" : "search #cnn 1",
					"fontsize" : 12.0,
					"patching_rect" : [ 348.0, 285.0, 86.0, 18.0 ],
					"numinlets" : 2,
					"fontname" : "Arial",
					"id" : "obj-13",
					"numoutlets" : 1,
					"outlettype" : [ "" ]
				}

			}
, 			{
				"box" : 				{
					"maxclass" : "message",
					"text" : "search $1 1",
					"fontsize" : 12.0,
					"patching_rect" : [ 229.0, 224.0, 73.0, 18.0 ],
					"numinlets" : 2,
					"fontname" : "Arial",
					"id" : "obj-12",
					"numoutlets" : 1,
					"outlettype" : [ "" ]
				}

			}
, 			{
				"box" : 				{
					"maxclass" : "textedit",
					"text" : "#MCN2012",
					"fontsize" : 16.0,
					"patching_rect" : [ 229.0, 110.0, 325.0, 23.0 ],
					"keymode" : 1,
					"autoscroll" : 0,
					"numinlets" : 1,
					"fontname" : "Arial",
					"id" : "obj-10",
					"numoutlets" : 4,
					"bgcolor" : [ 0.94902, 0.94902, 0.94902, 1.0 ],
					"lines" : 1,
					"outlettype" : [ "", "int", "", "" ]
				}

			}
, 			{
				"box" : 				{
					"maxclass" : "newobj",
					"text" : "mxj searchtweet",
					"fontsize" : 12.0,
					"patching_rect" : [ 266.0, 363.0, 97.0, 20.0 ],
					"numinlets" : 1,
					"fontname" : "Arial",
					"id" : "obj-4",
					"numoutlets" : 4,
					"outlettype" : [ "", "", "", "" ]
				}

			}
, 			{
				"box" : 				{
					"maxclass" : "panel",
					"patching_rect" : [ 324.0, 693.0, 398.0, 132.0 ],
					"numinlets" : 1,
					"id" : "obj-28",
					"numoutlets" : 0,
					"bgcolor" : [ 0.94902, 0.94902, 0.94902, 1.0 ]
				}

			}
 ],
		"lines" : [ 			{
				"patchline" : 				{
					"source" : [ "obj-42", 2 ],
					"destination" : [ "obj-17", 0 ],
					"hidden" : 0,
					"midpoints" : [ 563.5, 784.0, 865.0, 784.0, 865.0, 40.0, 186.5, 40.0 ]
				}

			}
, 			{
				"patchline" : 				{
					"source" : [ "obj-5", 3 ],
					"destination" : [ "obj-44", 0 ],
					"hidden" : 0,
					"midpoints" : [ 297.25, 1232.0, 505.0, 1232.0, 505.0, 1002.0, 556.5, 1011.0 ]
				}

			}
, 			{
				"patchline" : 				{
					"source" : [ "obj-42", 0 ],
					"destination" : [ "obj-45", 1 ],
					"hidden" : 0,
					"midpoints" : [ 527.5, 1128.0, 457.0, 1128.0, 457.0, 1005.0, 422.5, 1005.0 ]
				}

			}
, 			{
				"patchline" : 				{
					"source" : [ "obj-45", 0 ],
					"destination" : [ "obj-3", 0 ],
					"hidden" : 0,
					"midpoints" : [  ]
				}

			}
, 			{
				"patchline" : 				{
					"source" : [ "obj-5", 4 ],
					"destination" : [ "obj-43", 0 ],
					"hidden" : 0,
					"midpoints" : [ 370.5, 1232.0, 470.0, 1232.0, 470.0, 984.0, 526.5, 984.0 ]
				}

			}
, 			{
				"patchline" : 				{
					"source" : [ "obj-44", 0 ],
					"destination" : [ "obj-42", 2 ],
					"hidden" : 0,
					"midpoints" : [  ]
				}

			}
, 			{
				"patchline" : 				{
					"source" : [ "obj-43", 0 ],
					"destination" : [ "obj-42", 0 ],
					"hidden" : 0,
					"midpoints" : [  ]
				}

			}
, 			{
				"patchline" : 				{
					"source" : [ "obj-5", 2 ],
					"destination" : [ "obj-42", 4 ],
					"hidden" : 0,
					"midpoints" : [ 224.0, 1231.0, 624.0, 1231.0, 624.0, 1063.0, 581.5, 1063.0 ]
				}

			}
, 			{
				"patchline" : 				{
					"source" : [ "obj-4", 0 ],
					"destination" : [ "obj-25", 0 ],
					"hidden" : 0,
					"midpoints" : [ 275.5, 476.0, 73.5, 476.0 ]
				}

			}
, 			{
				"patchline" : 				{
					"source" : [ "obj-20", 0 ],
					"destination" : [ "obj-19", 0 ],
					"hidden" : 0,
					"midpoints" : [  ]
				}

			}
, 			{
				"patchline" : 				{
					"source" : [ "obj-5", 1 ],
					"destination" : [ "obj-7", 1 ],
					"hidden" : 0,
					"midpoints" : [  ]
				}

			}
, 			{
				"patchline" : 				{
					"source" : [ "obj-5", 0 ],
					"destination" : [ "obj-7", 0 ],
					"hidden" : 0,
					"midpoints" : [  ]
				}

			}
, 			{
				"patchline" : 				{
					"source" : [ "obj-5", 2 ],
					"destination" : [ "obj-33", 0 ],
					"hidden" : 0,
					"midpoints" : [  ]
				}

			}
, 			{
				"patchline" : 				{
					"source" : [ "obj-5", 3 ],
					"destination" : [ "obj-35", 0 ],
					"hidden" : 0,
					"midpoints" : [  ]
				}

			}
, 			{
				"patchline" : 				{
					"source" : [ "obj-5", 4 ],
					"destination" : [ "obj-36", 0 ],
					"hidden" : 0,
					"midpoints" : [  ]
				}

			}
, 			{
				"patchline" : 				{
					"source" : [ "obj-26", 0 ],
					"destination" : [ "obj-5", 0 ],
					"hidden" : 0,
					"midpoints" : [ 323.5, 1028.0, 100.0, 1028.0, 100.0, 1112.0, 77.5, 1112.0 ]
				}

			}
, 			{
				"patchline" : 				{
					"source" : [ "obj-3", 0 ],
					"destination" : [ "obj-5", 1 ],
					"hidden" : 0,
					"midpoints" : [ 311.5, 1139.5, 370.5, 1139.5 ]
				}

			}
, 			{
				"patchline" : 				{
					"source" : [ "obj-6", 0 ],
					"destination" : [ "obj-1", 0 ],
					"hidden" : 0,
					"midpoints" : [ 192.5, 975.0, 27.5, 975.0 ]
				}

			}
, 			{
				"patchline" : 				{
					"source" : [ "obj-12", 0 ],
					"destination" : [ "obj-4", 0 ],
					"hidden" : 0,
					"midpoints" : [ 238.5, 311.5, 275.5, 311.5 ]
				}

			}
, 			{
				"patchline" : 				{
					"source" : [ "obj-4", 1 ],
					"destination" : [ "obj-14", 1 ],
					"hidden" : 0,
					"midpoints" : [ 301.5, 508.0, 709.5, 508.0 ]
				}

			}
, 			{
				"patchline" : 				{
					"source" : [ "obj-4", 0 ],
					"destination" : [ "obj-15", 1 ],
					"hidden" : 0,
					"midpoints" : [ 275.5, 549.0, 703.5, 549.0 ]
				}

			}
, 			{
				"patchline" : 				{
					"source" : [ "obj-4", 2 ],
					"destination" : [ "obj-16", 1 ],
					"hidden" : 0,
					"midpoints" : [ 327.5, 614.0, 703.5, 614.0 ]
				}

			}
, 			{
				"patchline" : 				{
					"source" : [ "obj-10", 0 ],
					"destination" : [ "obj-20", 0 ],
					"hidden" : 0,
					"midpoints" : [  ]
				}

			}
, 			{
				"patchline" : 				{
					"source" : [ "obj-20", 0 ],
					"destination" : [ "obj-12", 0 ],
					"hidden" : 0,
					"midpoints" : [  ]
				}

			}
, 			{
				"patchline" : 				{
					"source" : [ "obj-13", 0 ],
					"destination" : [ "obj-4", 0 ],
					"hidden" : 0,
					"midpoints" : [ 357.5, 249.0, 275.5, 249.0 ]
				}

			}
, 			{
				"patchline" : 				{
					"source" : [ "obj-17", 0 ],
					"destination" : [ "obj-10", 0 ],
					"hidden" : 0,
					"midpoints" : [ 186.5, 141.0, 220.0, 141.0, 220.0, 103.0, 238.5, 103.0 ]
				}

			}
, 			{
				"patchline" : 				{
					"source" : [ "obj-31", 0 ],
					"destination" : [ "obj-4", 0 ],
					"hidden" : 0,
					"midpoints" : [ 320.5, 275.0, 275.5, 275.0 ]
				}

			}
, 			{
				"patchline" : 				{
					"source" : [ "obj-32", 0 ],
					"destination" : [ "obj-4", 0 ],
					"hidden" : 0,
					"midpoints" : [ 320.5, 277.0, 275.5, 277.0 ]
				}

			}
, 			{
				"patchline" : 				{
					"source" : [ "obj-4", 3 ],
					"destination" : [ "obj-2", 0 ],
					"hidden" : 0,
					"midpoints" : [ 353.5, 388.0, 373.0, 388.0, 373.0, 356.0, 404.5, 356.0 ]
				}

			}
, 			{
				"patchline" : 				{
					"source" : [ "obj-6", 1 ],
					"destination" : [ "obj-9", 0 ],
					"hidden" : 0,
					"midpoints" : [  ]
				}

			}
, 			{
				"patchline" : 				{
					"source" : [ "obj-6", 0 ],
					"destination" : [ "obj-8", 0 ],
					"hidden" : 0,
					"midpoints" : [  ]
				}

			}
, 			{
				"patchline" : 				{
					"source" : [ "obj-11", 0 ],
					"destination" : [ "obj-6", 0 ],
					"hidden" : 0,
					"midpoints" : [  ]
				}

			}
, 			{
				"patchline" : 				{
					"source" : [ "obj-18", 0 ],
					"destination" : [ "obj-11", 0 ],
					"hidden" : 0,
					"midpoints" : [  ]
				}

			}
, 			{
				"patchline" : 				{
					"source" : [ "obj-4", 1 ],
					"destination" : [ "obj-11", 1 ],
					"hidden" : 0,
					"midpoints" : [ 301.5, 576.5, 294.5, 576.5 ]
				}

			}
, 			{
				"patchline" : 				{
					"source" : [ "obj-4", 1 ],
					"destination" : [ "obj-18", 0 ],
					"hidden" : 0,
					"midpoints" : [ 301.5, 566.0, 70.5, 566.0 ]
				}

			}
, 			{
				"patchline" : 				{
					"source" : [ "obj-6", 1 ],
					"destination" : [ "obj-26", 0 ],
					"hidden" : 0,
					"midpoints" : [  ]
				}

			}
, 			{
				"patchline" : 				{
					"source" : [ "obj-17", 0 ],
					"destination" : [ "obj-37", 0 ],
					"hidden" : 0,
					"midpoints" : [ 88.0, 95.0 ]
				}

			}
, 			{
				"patchline" : 				{
					"source" : [ "obj-10", 0 ],
					"destination" : [ "obj-38", 0 ],
					"hidden" : 0,
					"midpoints" : [  ]
				}

			}
, 			{
				"patchline" : 				{
					"source" : [ "obj-20", 0 ],
					"destination" : [ "obj-39", 0 ],
					"hidden" : 0,
					"midpoints" : [  ]
				}

			}
, 			{
				"patchline" : 				{
					"source" : [ "obj-12", 0 ],
					"destination" : [ "obj-40", 0 ],
					"hidden" : 0,
					"midpoints" : [ 238.5, 493.5, 187.5, 493.5 ]
				}

			}
, 			{
				"patchline" : 				{
					"source" : [ "obj-4", 0 ],
					"destination" : [ "obj-41", 0 ],
					"hidden" : 0,
					"midpoints" : [  ]
				}

			}
 ],
		"parameters" : 		{

		}

	}

}
